<?xml version="1.0" standalone="no"?>
<!DOCTYPE svg PUBLIC "-//W3C//DTD SVG 1.1//EN" "http://www.w3.org/Graphics/SVG/1.1/DTD/svg11.dtd" >
<svg xmlns="http://www.w3.org/2000/svg" xmlns:xlink="http://www.w3.org/1999/xlink" version="1.1">
<metadata>
Created by FontForge 20170104 at Fri Jun  9 14:34:01 2006
 By myTaste
Part of the digitally encoded machine readable outline data for producing the Typefaces provided is copyrighted (c) 2003 - 2006 Linotype GmbH, www.linotype.com. All rights reserved. This software is the property of Linotype GmbH, and may not be reproduced, modified, disclosed or transferred without the express written approval of Linotype GmbH. Copyright (c) 1988, 1990, 1993 Adobe Systems Incorporated. All Rights Reserved. Helvetica is a trademark of Heidelberger Druckmaschinen AG, exclusively licensed through Linotype GmbH, and may be registered in certain jurisdictions. This typeface is original artwork of Linotype Design Studio. The design may be protected in certain jurisdictions.
</metadata>
<defs>
<font id="HelveticaNeueLTCom-HvCn" horiz-adv-x="260" >
  <font-face 
    font-family="HelveticaNeueLT Com 67 MdCn"
    font-weight="800"
    font-stretch="normal"
    units-per-em="1000"
    panose-1="2 11 8 6 4 7 2 4 2 4"
    ascent="714"
    descent="-286"
    x-height="541"
    cap-height="714"
    bbox="-166 -224 1100 967"
    underline-thickness="50"
    underline-position="-100"
    unicode-range="U+000D-FB02"
  />
<missing-glyph horiz-adv-x="512" 
d="M222 117v67h56v-67h-56zM225 234l-2 17q0 55 13 81t46 59q32 31 41 47.5t9 35.5q0 36 -22.5 60.5t-53.5 24.5t-53.5 -22t-28.5 -73l-50 8q7 71 44 104t91 33q53 0 88.5 -36t35.5 -95q0 -32 -12.5 -58.5t-50.5 -61.5q-37 -33 -43 -52t-6 -72h-46zM462 50v617h-412v-617
h412zM512 718v-718h-512v718h512z" />
    <glyph glyph-name="IJ" unicode="IJ" horiz-adv-x="768" 
d="M55 714h168v-714h-168v714zM548 714h168v-499q0 -50 -11 -92t-36.5 -72.5t-67.5 -47.5t-104 -17q-113 0 -163 51.5t-50 145.5v44h156v-31q0 -18 1 -35.5t6 -31.5t16.5 -22.5t31.5 -8.5q18 0 28.5 9t16 24.5t7 37t1.5 46.5v499z" />
    <glyph glyph-name="ij" unicode="ij" horiz-adv-x="518" 
d="M49 722h162v-124h-162v124zM49 541h162v-541h-162v541zM307 722h162v-124h-162v124zM307 541h162v-554q0 -42 -6.5 -72.5t-24.5 -51t-50 -30t-84 -9.5q-19 0 -34 0.5t-35 1.5v111q5 -1 13 -1h10q18 1 28 5.5t14.5 12.5t5.5 21t1 31v535z" />
    <glyph glyph-name="napostrophe" unicode="&#x22;n" horiz-adv-x="547" 
d="M73 541h156v-64h2q17 36 51 57t79 21q69 0 105 -36t36 -114v-405h-162v369q0 29 -12 45.5t-35 16.5t-40.5 -18.5t-17.5 -58.5v-354h-162v541zM17 818h134v-76q-3 -56 -32.5 -76.5t-84.5 -21.5v40q26 4 34 11t10 19h-61v104z" />
    <glyph glyph-name="fi" unicode="fi" horiz-adv-x="556" 
d="M345 722h162v-124h-162v124zM345 541h162v-541h-162v541zM66 429h-67v112h67v45q0 37 7 64t26 44.5t50.5 25.5t81.5 8q23 0 39.5 -0.5t32.5 -2.5v-109h-23q-33 0 -42.5 -9t-9.5 -32v-34h75v-112h-75v-429h-162v429z" />
    <glyph glyph-name="fl" unicode="fl" horiz-adv-x="556" 
d="M66 429h-67v112h67v45q0 37 7 64t26 44.5t50.5 25.5t81.5 8q23 0 39.5 -0.5t32.5 -2.5v-109h-23q-33 0 -42.5 -9t-9.5 -32v-34h75v-112h-75v-429h-162v429zM345 714h162v-714h-162v714z" />
    <glyph glyph-name=".notdef" horiz-adv-x="512" 
d="M222 117v67h56v-67h-56zM225 234l-2 17q0 55 13 81t46 59q32 31 41 47.5t9 35.5q0 36 -22.5 60.5t-53.5 24.5t-53.5 -22t-28.5 -73l-50 8q7 71 44 104t91 33q53 0 88.5 -36t35.5 -95q0 -32 -12.5 -58.5t-50.5 -61.5q-37 -33 -43 -52t-6 -72h-46zM462 50v617h-412v-617
h412zM512 718v-718h-512v718h512z" />
    <glyph glyph-name="nonmarkingreturn" unicode="&#xd;" horiz-adv-x="0" 
 />
    <glyph glyph-name="space" unicode=" " 
 />
    <glyph glyph-name="exclam" unicode="!" horiz-adv-x="334" 
d="M90 150h156v-150h-156v150zM86 714h162v-234l-18 -276h-124l-20 276v234z" />
    <glyph glyph-name="quotedbl" unicode="&#x22;" horiz-adv-x="481" 
d="M72 714h130v-349h-130v349zM279 714h130v-349h-130v349z" />
    <glyph glyph-name="numbersign" unicode="#" horiz-adv-x="520" 
d="M305 411h-72l-18 -128h72zM89 171h-73v112h89l18 128h-73v112h89l23 171h111l-24 -171h72l24 171h110l-24 -171h73v-112h-89l-18 -128h73v-112h-89l-23 -171h-110l23 171h-72l-23 -171h-110z" />
    <glyph glyph-name="dollar" unicode="$" horiz-adv-x="520" 
d="M217 -14q-39 2 -74.5 12t-62.5 31t-43 54.5t-16 82.5v46h162v-23q0 -39 14.5 -65t57.5 -26q22 0 36.5 7t23.5 18.5t12.5 25.5t3.5 28q0 37 -22.5 58t-57 35.5t-74 28.5t-74 38t-57 63t-22.5 104q0 40 10.5 75t33.5 62t59.5 44.5t89.5 22.5v74h78v-74q52 -4 88.5 -20
t59.5 -41t33 -58t10 -70v-17h-162q0 23 -3 41t-11 30q-14 23 -51 23q-67 0 -67 -71q0 -37 22.5 -57.5t57 -35.5t74 -29t74 -37t57 -60.5t22.5 -98.5q0 -110 -53.5 -161.5t-150.5 -59.5v-88h-78v88z" />
    <glyph glyph-name="percent" unicode="%" horiz-adv-x="778" 
d="M443 178q0 43 6.5 78t24 60.5t48.5 39.5t79 14q54 0 85 -15t47.5 -41t21 -61t4.5 -75t-4.5 -75t-20.5 -61t-47.5 -41t-84.5 -15q-54 0 -85.5 15t-48 41t-21 61t-4.5 75zM19 516q0 43 6.5 78t24 60.5t48.5 39.5t79 14q54 0 85 -15t47.5 -41t21 -61t4.5 -75t-4.5 -75
t-20.5 -61t-47.5 -41t-84.5 -15q-54 0 -85.5 15t-48 41t-21 61t-4.5 75zM561 178q0 -58 8.5 -83.5t31.5 -25.5q26 0 33 24.5t7 89.5q0 34 -2 54.5t-7 31.5t-12.5 14.5t-18.5 3.5q-14 0 -22 -8.5t-12.5 -23.5t-5.5 -35t0 -42zM497 708h101l-314 -722h-101zM137 516
q0 -58 8.5 -83.5t31.5 -25.5q26 0 33 24.5t7 89.5q0 34 -2 54.5t-7 31.5t-12.5 14.5t-18.5 3.5q-14 0 -22 -8.5t-12.5 -23.5t-5.5 -35t0 -42z" />
    <glyph glyph-name="ampersand" unicode="&#x26;" horiz-adv-x="630" 
d="M440 250q15 22 20.5 46t7.5 49h142q-4 -61 -21 -114.5t-62 -98.5l98 -132h-177l-32 44q-39 -27 -80.5 -42.5t-96.5 -15.5q-62 0 -103.5 18.5t-67.5 47.5t-37 64t-11 69q0 39 10 68.5t28 54t43.5 45.5t56.5 44q-11 14 -23 33t-22.5 40t-17.5 43t-7 42q0 42 15.5 73.5
t42 52t62 31t75.5 10.5q39 0 73.5 -10t60.5 -29.5t41 -50t15 -70.5q0 -33 -10.5 -59t-27.5 -48.5t-39.5 -41.5t-47.5 -38zM235 292q-31 -22 -45 -45t-14 -49q0 -17 7 -33t19 -28t28.5 -19.5t35.5 -7.5q46 0 76 36zM224 573q0 -26 16.5 -51t34.5 -48q24 20 43 42.5t19 55.5
q0 26 -17.5 41t-40.5 15q-20 0 -37.5 -14.5t-17.5 -40.5z" />
    <glyph glyph-name="quotesingle" unicode="'" 
d="M65 714h130v-349h-130v349z" />
    <glyph glyph-name="parenleft" unicode="(" horiz-adv-x="315" 
d="M190 -184q-28 45 -53.5 97.5t-45 109.5t-31 118t-11.5 124t11.5 124t31 118t45 109.5t53.5 97.5h130q-23 -39 -44 -88t-36.5 -106.5t-25 -121.5t-9.5 -133t9.5 -133t25 -121.5t36.5 -106.5t44 -88h-130z" />
    <glyph glyph-name="parenright" unicode=")" horiz-adv-x="315" 
d="M125 714q28 -45 53.5 -97.5t45 -109.5t31 -118t11.5 -124t-11.5 -124t-31 -118t-45 -109.5t-53.5 -97.5h-130q23 39 44 88t36.5 106.5t25 121.5t9.5 133t-9.5 133t-25 121.5t-36.5 106.5t-44 88h130z" />
    <glyph glyph-name="asterisk" unicode="*" horiz-adv-x="408" 
d="M37 627l124 -48l-2 135h90l-2 -135l123 48l30 -86l-126 -42l82 -106l-74 -54l-78 108l-78 -108l-73 54l81 106l-126 42z" />
    <glyph glyph-name="plus" unicode="+" horiz-adv-x="600" 
d="M235 188h-188v130h188v188h130v-188h188v-130h-188v-188h-130v188z" />
    <glyph glyph-name="comma" unicode="," 
d="M52 180h156v-149q0 -38 -5.5 -72.5t-22 -62t-47 -45t-81.5 -20.5v78q34 0 48 23t14 74h-62v174z" />
    <glyph glyph-name="hyphen" unicode="-" horiz-adv-x="370" 
d="M34 357h302v-136h-302v136z" />
    <glyph glyph-name="period" unicode="." 
d="M52 180h156v-180h-156v180z" />
    <glyph glyph-name="slash" unicode="/" horiz-adv-x="352" 
d="M222 728h136l-228 -742h-136z" />
    <glyph glyph-name="zero" unicode="0" horiz-adv-x="520" 
d="M493 347q0 -76 -7 -142t-31 -114.5t-70 -76.5t-125 -28q-80 0 -126 24.5t-70 70.5t-30.5 113t-6.5 153q0 76 7 142t31 114.5t70 76.5t125 28t125.5 -24.5t70.5 -70.5t30.5 -113.5t6.5 -152.5zM195 346q0 -75 2 -124t9 -78t20 -40.5t34 -11.5t34 11.5t20 40.5t9 78t2 124
q0 76 -2 125.5t-9 78.5t-20 40.5t-34 11.5t-34 -11.5t-20 -40.5t-9 -78.5t-2 -125.5z" />
    <glyph glyph-name="one" unicode="1" horiz-adv-x="520" 
d="M197 491h-136v106h21q48 0 78.5 11t48.5 27.5t26.5 36t11.5 36.5h118v-708h-168v491z" />
    <glyph glyph-name="two" unicode="2" horiz-adv-x="520" 
d="M38 472v23q0 213 228 213q64 0 106.5 -15.5t67.5 -42t35 -62.5t10 -78q0 -40 -5 -69t-18 -54.5t-34.5 -50.5t-54.5 -56q-52 -51 -88.5 -85.5t-49.5 -64.5h251v-130h-452q0 63 16.5 113t41 89t52 68t50.5 49q45 40 70 67.5t37 48t14 37.5t2 37q0 42 -11.5 67.5t-47.5 25.5
q-24 0 -37 -12.5t-19 -32t-7 -42.5t-1 -43h-156z" />
    <glyph glyph-name="three" unicode="3" horiz-adv-x="520" 
d="M194 208q0 -24 2.5 -45t9.5 -36.5t19 -25t31 -9.5q32 0 48 22t16 82q0 34 -4.5 56t-15 34.5t-27 17.5t-41.5 5h-40v106h46q42 0 57 27t15 79q0 42 -13.5 61.5t-42.5 19.5q-28 0 -46.5 -21t-18.5 -81h-150q0 106 54 156q55 52 173 52q105 0 155.5 -46t50.5 -149
q0 -54 -26 -92.5t-75 -49.5v-2q63 -14 90 -54.5t27 -115.5q0 -57 -17.5 -97.5t-47.5 -66t-71 -37.5t-87 -12q-53 0 -95.5 9.5t-73.5 34t-47.5 67.5t-16.5 111h162z" />
    <glyph glyph-name="four" unicode="4" horiz-adv-x="520" 
d="M22 267l230 427h180v-427h66v-130h-66v-137h-156v137h-254v130zM276 504h-2l-119 -237h121v237z" />
    <glyph glyph-name="five" unicode="5" horiz-adv-x="520" 
d="M190 208v-26q0 -18 2.5 -34t9 -28.5t18.5 -20t30 -7.5q40 0 52.5 39.5t12.5 112.5q0 63 -14.5 93t-47.5 30q-23 0 -40.5 -12.5t-21.5 -43.5h-156l22 383h397v-130h-268l-8 -133l2 -2q7 13 20 23.5t29 18t33.5 11t34.5 3.5q97 0 141.5 -58.5t44.5 -187.5q0 -135 -57 -194
t-175 -59q-114 0 -168.5 51t-54.5 145v26h162z" />
    <glyph glyph-name="six" unicode="6" horiz-adv-x="520" 
d="M263 92q36 0 49 32.5t13 90.5q0 66 -11.5 95.5t-51.5 29.5q-19 0 -31 -8.5t-18.5 -24t-9 -36t-2.5 -44.5q0 -63 12.5 -99t49.5 -36zM317 527q0 15 -2 28.5t-8 24.5q-13 22 -41 22q-21 0 -34.5 -9.5t-22 -32t-11.5 -61.5t-3 -97h2q17 32 49 47t77 15q81 0 125.5 -50.5
t44.5 -169.5q0 -53 -10 -100t-36 -82t-71 -55.5t-115 -20.5q-78 0 -124.5 24t-71 69t-31.5 108.5t-7 143.5q0 88 6 158t31 119t74 74.5t135 25.5q95 0 149.5 -42.5t56.5 -138.5h-162z" />
    <glyph glyph-name="seven" unicode="7" horiz-adv-x="520" 
d="M32 552v142h451v-125q-41 -62 -75 -136.5t-59 -151t-40 -149.5t-18 -132h-174q4 61 22.5 136t46 151t63 145.5t73.5 119.5h-290z" />
    <glyph glyph-name="eight" unicode="8" horiz-adv-x="520" 
d="M260 316q-20 0 -33 -8.5t-20.5 -23.5t-10.5 -35t-3 -44t3 -44.5t10.5 -35.5t20.5 -24t33 -9t33 9t20.5 24t10.5 35.5t3 44.5t-3 44t-10.5 35t-20.5 23.5t-33 8.5zM260 422q29 0 44 19.5t15 71.5q0 37 -12.5 63t-46.5 26t-46.5 -26t-12.5 -63q0 -52 15 -71.5t44 -19.5z
M260 708q59 0 100 -13t66.5 -37t37 -57.5t11.5 -75.5q0 -60 -25.5 -99t-74.5 -50v-2q57 -9 88.5 -52t31.5 -115q0 -45 -9.5 -85t-35.5 -70.5t-72 -48t-118 -17.5t-118 16.5t-72 46t-35.5 70t-9.5 88.5q0 30 6.5 58t20.5 50.5t36 38t54 20.5v2q-45 12 -71 49t-26 100
q0 40 11.5 73.5t37 58t66.5 38t100 13.5z" />
    <glyph glyph-name="nine" unicode="9" horiz-adv-x="520" 
d="M258 354q19 0 30.5 8.5t18.5 24t9.5 36t2.5 44.5q0 63 -12.5 99t-49.5 36q-36 0 -49 -32.5t-13 -90.5q0 -66 11.5 -95.5t51.5 -29.5zM203 166q0 -14 2 -27.5t8 -24.5q13 -22 41 -22q21 0 34.5 9.5t22 32t11.5 61t3 97.5h-2q-17 -32 -49 -47t-77 -15q-81 0 -125.5 50.5
t-44.5 169.5q0 53 10 100t36 82t71 55.5t115 20.5q78 0 124.5 -24t71 -69t31.5 -109t7 -143q0 -89 -6 -158.5t-31 -118.5t-74 -74.5t-135 -25.5q-96 0 -150 42t-56 138h162z" />
    <glyph glyph-name="colon" unicode=":" 
d="M52 532h156v-180h-156v180zM52 180h156v-180h-156v180z" />
    <glyph glyph-name="semicolon" unicode=";" 
d="M52 532h156v-180h-156v180zM52 180h156v-149q0 -38 -5.5 -72.5t-22 -62t-47 -45t-81.5 -20.5v78q34 0 48 23t14 74h-62v174z" />
    <glyph glyph-name="less" unicode="&#x3c;" horiz-adv-x="600" 
d="M47 318l506 196v-130l-338 -131l338 -131v-130l-506 196v130z" />
    <glyph glyph-name="equal" unicode="=" horiz-adv-x="600" 
d="M47 209h506v-130h-506v130zM47 427h506v-130h-506v130z" />
    <glyph glyph-name="greater" unicode="&#x3e;" horiz-adv-x="600" 
d="M553 188l-506 -196v130l338 131l-338 131v130l506 -196v-130z" />
    <glyph glyph-name="question" unicode="?" horiz-adv-x="500" 
d="M163 150h156v-150h-156v150zM39 491v20q0 103 51.5 160t157.5 57q103 0 158 -50.5t55 -143.5q0 -43 -10.5 -74.5t-27 -56.5t-35 -45t-35 -38.5t-27 -38.5t-10.5 -44v-33h-150v32q0 49 8.5 80t25.5 56q15 21 33.5 37.5t34.5 35t26.5 43t10.5 61.5q0 35 -12 54t-43 19
q-32 0 -46.5 -29.5t-14.5 -101.5h-150z" />
    <glyph glyph-name="at" unicode="@" horiz-adv-x="800" 
d="M539 540h87l-58 -250q-4 -17 -5 -26t-1 -14q0 -21 19 -21q15 0 33 12t33.5 34.5t25.5 54.5t10 73q0 55 -21 98t-57 72.5t-84.5 45t-103.5 15.5q-64 0 -116 -21.5t-89 -59.5t-57 -89t-20 -109q0 -60 22 -110t60.5 -87t91.5 -57.5t115 -20.5q69 0 122 18.5t95 44.5h89
q-54 -75 -133 -116t-176 -41q-81 0 -152.5 27.5t-125 77t-84 117.5t-30.5 149q0 79 30.5 147t83.5 118t123.5 78t151.5 28q68 0 132 -21.5t113 -61.5t78.5 -95.5t29.5 -124.5q0 -80 -30 -134.5t-71 -88t-82.5 -48.5t-65.5 -15q-27 0 -44 13t-19 40h-2q-20 -22 -50.5 -37.5
t-69.5 -15.5q-27 0 -53.5 11.5t-47 33.5t-33.5 53.5t-13 71.5q0 46 15 90t43 78.5t67.5 56t89.5 21.5q78 0 121 -67zM490 375q0 35 -22.5 57.5t-54.5 22.5q-26 0 -47 -12t-37 -30.5t-24.5 -42t-8.5 -45.5q0 -37 20 -61.5t55 -24.5q26 0 48 12t37.5 31.5t24.5 44t9 48.5z" />
    <glyph glyph-name="A" unicode="A" horiz-adv-x="574" 
d="M184 714h210l178 -714h-174l-26 136h-171l-25 -136h-174zM286 584h-2l-59 -318h122z" />
    <glyph glyph-name="B" unicode="B" horiz-adv-x="574" 
d="M220 124h51q51 0 71 27.5t20 65.5q0 54 -24.5 77t-63.5 23h-54v-193zM220 429h46q45 0 63.5 23t18.5 61q0 13 -4 27t-13.5 25t-25 18t-38.5 7h-47v-161zM52 714h261q92 0 147.5 -43.5t55.5 -132.5q0 -63 -30.5 -107t-81.5 -54v-2q20 -3 43 -10.5t43 -26.5t33 -52t13 -88
q0 -32 -9 -66.5t-34.5 -64t-71.5 -48.5t-121 -19h-248v714z" />
    <glyph glyph-name="C" unicode="C" horiz-adv-x="537" 
d="M351 466q0 78 -13 114t-55 36q-25 0 -39.5 -13t-22 -42.5t-9.5 -77.5t-2 -118q0 -80 2 -131.5t10 -81.5t23.5 -42t41.5 -12q23 0 36.5 13t21 36.5t10 57t2.5 75.5h162v-25q0 -58 -10 -107t-37.5 -85t-76.5 -56.5t-127 -20.5q-81 0 -127 28.5t-69.5 79t-29.5 119t-6 149.5
q0 69 5.5 134.5t29.5 117t74 83t139 31.5q111 0 170 -53t59 -179v-30h-162z" />
    <glyph glyph-name="D" unicode="D" horiz-adv-x="574" 
d="M220 124h45q29 0 49 8t32.5 34t18 74.5t5.5 128.5q0 65 -3.5 108t-14.5 68t-31.5 35t-53.5 10h-47v-466zM52 714h249q62 0 107 -17.5t74 -56.5t42.5 -103t13.5 -157q0 -97 -8.5 -168.5t-35.5 -118.5t-77 -70t-133 -23h-232v714z" />
    <glyph glyph-name="E" unicode="E" horiz-adv-x="500" 
d="M52 714h413v-136h-245v-143h230v-136h-230v-163h256v-136h-424v714z" />
    <glyph glyph-name="F" unicode="F" horiz-adv-x="481" 
d="M52 714h413v-136h-245v-143h230v-136h-230v-299h-168v714z" />
    <glyph glyph-name="G" unicode="G" horiz-adv-x="556" 
d="M354 497q0 17 -2 38t-8.5 39t-20 30t-36.5 12q-26 0 -41 -14t-23 -45t-10.5 -80.5t-2.5 -120.5q0 -73 2.5 -122.5t11 -79.5t23.5 -43t40 -13q43 0 60 37.5t17 112.5v23h-79v112h235v-383h-115l-4 68h-2q-10 -24 -26.5 -40t-36.5 -25t-43.5 -13t-47.5 -4q-67 0 -108 24.5
t-63.5 70t-30 111.5t-7.5 150q0 88 6 159t31.5 121.5t76.5 78t140 27.5q54 0 92 -11.5t63 -30.5t39.5 -43t21.5 -50t8.5 -51t1.5 -45h-162z" />
    <glyph glyph-name="H" unicode="H" horiz-adv-x="574" 
d="M52 714h168v-267h134v267h168v-714h-168v305h-134v-305h-168v714z" />
    <glyph glyph-name="I" unicode="I" horiz-adv-x="278" 
d="M55 714h168v-714h-168v714z" />
    <glyph glyph-name="J" unicode="J" horiz-adv-x="500" 
d="M280 714h168v-499q0 -50 -11 -92t-36.5 -72.5t-67.5 -47.5t-104 -17q-113 0 -163 51.5t-50 145.5v44h156v-31q0 -18 1 -35.5t6 -31.5t16.5 -22.5t31.5 -8.5q18 0 28.5 9t16 24.5t7 37t1.5 46.5v499z" />
    <glyph glyph-name="K" unicode="K" horiz-adv-x="574" 
d="M52 714h168v-282h2l157 282h181l-187 -308l210 -406h-189l-129 269l-45 -69v-200h-168v714z" />
    <glyph glyph-name="L" unicode="L" horiz-adv-x="463" 
d="M52 714h168v-578h243v-136h-411v714z" />
    <glyph glyph-name="M" unicode="M" horiz-adv-x="778" 
d="M57 714h246l88 -469h2l85 469h243v-714h-156v556h-2l-109 -556h-130l-115 556h-2v-556h-150v714z" />
    <glyph glyph-name="N" unicode="N" horiz-adv-x="593" 
d="M52 714h193l138 -464h2v464h156v-714h-190l-147 492h-2v-492h-150v714z" />
    <glyph glyph-name="O" unicode="O" horiz-adv-x="574" 
d="M538 357q0 -74 -6 -141.5t-30.5 -118.5t-75 -81t-139.5 -30q-83 0 -132.5 26t-76 74.5t-34.5 117t-8 153.5t8 153.5t34.5 117t76 74.5t132.5 26q89 0 139.5 -30t75 -81t30.5 -118.5t6 -141.5zM210 357q0 -74 2.5 -123.5t10.5 -79.5t23 -43t40 -13t40.5 13t24 43t11 79.5
t2.5 123.5q0 73 -2.5 123t-11 80t-24 43t-40.5 13t-40 -13t-23 -43t-10.5 -80t-2.5 -123z" />
    <glyph glyph-name="P" unicode="P" horiz-adv-x="556" 
d="M220 403h46q25 0 41 7.5t25.5 19.5t13 28.5t3.5 34.5q0 21 -4 38.5t-13.5 30.5t-26.5 20.5t-42 7.5h-43v-187zM52 714h260q66 0 107.5 -21.5t64.5 -53.5t31 -70.5t8 -71.5q0 -48 -12 -88t-39.5 -69t-71 -45t-106.5 -16h-74v-279h-168v714z" />
    <glyph glyph-name="Q" unicode="Q" horiz-adv-x="574" 
d="M373 -4q-8 -2 -17.5 -3.5t-20.5 -3.5q-23 -3 -48 -3q-83 0 -132.5 26t-76 74.5t-34.5 117t-8 153.5t8 153.5t34.5 117t76 74.5t132.5 26q89 0 139.5 -30t75 -81t30.5 -118.5t6 -141.5q0 -42 -1.5 -82.5t-6.5 -77.5t-16 -69.5t-29 -58.5l81 -83l-98 -90zM210 357
q0 -74 2.5 -123.5t10.5 -79.5t23 -43t40 -13t40.5 13t24 43t11 79.5t2.5 123.5q0 73 -2.5 123t-11 80t-24 43t-40.5 13t-40 -13t-23 -43t-10.5 -80t-2.5 -123z" />
    <glyph glyph-name="R" unicode="R" horiz-adv-x="574" 
d="M52 714h282q54 0 90.5 -15.5t59 -41t32.5 -59t10 -70.5q0 -78 -30 -119t-90 -55v-2q40 -6 63 -21t34 -38t14 -53t4 -66q1 -53 3 -84t5.5 -47.5t9 -23t14.5 -10.5v-9h-181q-10 18 -14 51t-4 94q0 46 -3.5 75.5t-11.5 46t-21.5 22.5t-33.5 6h-64v-295h-168v714zM220 413h52
q25 0 42 8.5t26.5 22t13.5 30t4 32.5q0 40 -18.5 65t-68.5 25h-51v-183z" />
    <glyph glyph-name="S" unicode="S" horiz-adv-x="537" 
d="M191 218v-25q0 -41 14.5 -68t58.5 -27q22 0 36.5 7.5t23.5 19.5t12.5 27.5t3.5 30.5q0 38 -22.5 59.5t-57 36.5t-74 29t-74 38.5t-57 64.5t-22.5 107q0 43 12 81t40 66.5t72.5 45.5t109.5 17q63 0 106.5 -15t70.5 -41.5t39 -62t12 -76.5v-17h-162q0 52 -14 75
q-15 25 -51 25q-67 0 -67 -77q0 -38 22.5 -59t57 -36t74 -29.5t74 -38t57 -62t22.5 -101.5q0 -61 -16.5 -104t-48 -70.5t-76.5 -40t-103 -12.5q-46 0 -88.5 8t-75 29t-52 57t-19.5 92v46h162z" />
    <glyph glyph-name="T" unicode="T" horiz-adv-x="480" 
d="M156 578h-150v136h468v-136h-150v-578h-168v578z" />
    <glyph glyph-name="U" unicode="U" horiz-adv-x="556" 
d="M513 236q0 -53 -9.5 -98.5t-35 -79t-71.5 -53t-119 -19.5t-119 19.5t-71.5 53t-35 79t-9.5 98.5v478h168v-527q0 -42 16.5 -65.5t50.5 -23.5t50.5 23.5t16.5 65.5v527h168v-478z" />
    <glyph glyph-name="V" unicode="V" horiz-adv-x="537" 
d="M2 714h180l85 -552h2l86 552h180l-162 -714h-214z" />
    <glyph glyph-name="W" unicode="W" horiz-adv-x="778" 
d="M6 714h168l62 -508h2l74 508h156l80 -508h2l60 508h162l-124 -714h-186l-73 507h-2l-69 -507h-186z" />
    <glyph glyph-name="X" unicode="X" horiz-adv-x="556" 
d="M178 363l-158 351h186l73 -219h2l72 219h186l-163 -351l177 -363h-192l-85 235l-87 -235h-186z" />
    <glyph glyph-name="Y" unicode="Y" horiz-adv-x="536" 
d="M184 281l-181 433h186l80 -265h2l82 265h180l-181 -433v-281h-168v281z" />
    <glyph glyph-name="Z" unicode="Z" horiz-adv-x="481" 
d="M23 124l242 454h-223v136h416v-118l-245 -460h245v-136h-435v124z" />
    <glyph glyph-name="bracketleft" unicode="[" horiz-adv-x="333" 
d="M84 714h253v-112h-103v-674h103v-112h-253v898z" />
    <glyph glyph-name="backslash" unicode="\" horiz-adv-x="352" 
d="M-6 728h136l228 -742h-136z" />
    <glyph glyph-name="bracketright" unicode="]" horiz-adv-x="333" 
d="M-4 -72h103v674h-103v112h253v-898h-253v112z" />
    <glyph glyph-name="asciicircum" unicode="^" horiz-adv-x="600" 
d="M243 694h114l187 -385h-124l-120 249l-120 -249h-124z" />
    <glyph glyph-name="underscore" unicode="_" horiz-adv-x="500" 
d="M0 -75h500v-50h-500v50z" />
    <glyph glyph-name="grave" unicode="`" 
d="M-15 741h156l50 -142h-106z" />
    <glyph glyph-name="a" unicode="a" horiz-adv-x="500" 
d="M183 167q0 -32 12 -50.5t35 -18.5q26 0 45.5 16t19.5 58q0 34 0.5 56t0.5 39q-38 -20 -57.5 -25.5t-30.5 -14.5q-13 -10 -19 -23.5t-6 -36.5zM42 375q1 57 16.5 91t44.5 54t64.5 27.5t86.5 7.5q100 0 146 -36.5t46 -123.5v-278q0 -31 2.5 -65t16.5 -52h-156
q-5 14 -6.5 30t-2.5 32h-2q-17 -36 -51 -56t-76 -20q-69 0 -106.5 38.5t-37.5 126.5q0 48 18 84.5t48 53.5t70.5 26t74.5 18q18 5 29.5 9.5t18 11t8.5 16.5t2 25q0 25 -12 39.5t-39 14.5q-34 0 -46 -19.5t-13 -54.5h-144z" />
    <glyph glyph-name="b" unicode="b" horiz-adv-x="519" 
d="M204 267q0 -79 11 -121t47 -42q22 0 35 14.5t19 38t7.5 54t1.5 63.5q0 37 -1.5 67t-7.5 51.5t-18.5 33t-34.5 11.5q-21 0 -32.5 -13t-17.5 -36t-7.5 -54t-1.5 -67zM45 714h162v-232h2q10 21 24 35.5t30 22.5t33 11.5t34 3.5q49 0 80 -21.5t48 -60t23 -91.5t6 -116
q0 -76 -11 -129t-32 -86.5t-52.5 -49t-71.5 -15.5q-27 0 -47 7.5t-34.5 19t-23 25.5t-12.5 28h-2v-66h-156v714z" />
    <glyph glyph-name="c" unicode="c" horiz-adv-x="481" 
d="M311 337q0 60 -14.5 86t-46.5 26q-20 0 -32 -12.5t-18.5 -35.5t-8.5 -56t-2 -75q0 -46 2 -79.5t8.5 -55.5t18.5 -32.5t32 -10.5q18 0 29.5 6.5t18 21.5t9.5 39.5t4 60.5h150q-1 -125 -52.5 -179.5t-161.5 -54.5q-77 0 -120.5 25t-66 67t-28 97t-5.5 115q0 57 9.5 105.5
t34.5 84t67.5 55.5t108.5 20q64 0 105.5 -16t65.5 -44.5t33.5 -69t9.5 -88.5h-150z" />
    <glyph glyph-name="d" unicode="d" horiz-adv-x="519" 
d="M315 267q0 36 -1.5 67t-7.5 54t-17.5 36t-32.5 13q-22 0 -34.5 -11.5t-18.5 -33t-7.5 -51.5t-1.5 -67q0 -33 1.5 -63.5t7.5 -54t18.5 -38t35.5 -14.5q36 0 47 42t11 121zM318 66h-2q-5 -14 -13.5 -28t-22.5 -25.5t-34 -19t-47 -7.5q-41 0 -72 15.5t-52 49t-32 86.5
t-11 129q0 63 6 116t23 91.5t47.5 60t80.5 21.5q17 0 34 -3.5t33 -11.5t30 -22.5t24 -35.5h2v232h162v-714h-156v66z" />
    <glyph glyph-name="e" unicode="e" horiz-adv-x="481" 
d="M306 338q0 57 -10.5 87t-44.5 30q-40 0 -51 -31t-11 -86h117zM189 244v-33q0 -63 12 -94t47 -31q32 0 44 24t15 75h150q-2 -102 -55 -150.5t-155 -48.5q-77 0 -120.5 25t-66 67t-28 97t-5.5 115q0 57 9.5 105.5t34.5 84t67.5 55.5t108.5 20q75 0 118 -22.5t64.5 -64
t27 -98.5t5.5 -126h-273z" />
    <glyph glyph-name="f" unicode="f" horiz-adv-x="296" 
d="M66 429h-67v112h67v45q0 37 7 64t26 44.5t50.5 25.5t81.5 8q23 0 39.5 -0.5t32.5 -2.5v-109h-23q-33 0 -42.5 -9t-9.5 -32v-34h75v-112h-75v-429h-162v429z" />
    <glyph glyph-name="g" unicode="g" horiz-adv-x="519" 
d="M198 280q0 -42 3 -71t10 -46t18 -24.5t28 -7.5q16 0 28 7t19 24.5t10.5 47t3.5 75.5q0 75 -12 110.5t-47 35.5q-20 0 -32 -11t-18.5 -31t-8.5 -48t-2 -61zM324 541h150v-522q0 -46 -11 -83.5t-37.5 -64t-69.5 -41t-107 -14.5q-59 0 -98 12t-62.5 32.5t-33 48t-9.5 57.5
h150q4 -22 17 -33q17 -11 40 -11q20 0 32.5 7t20 23.5t10 42.5t2.5 65v33h-2q-17 -47 -51.5 -63.5t-76.5 -16.5q-44 0 -73 20.5t-46.5 56t-25 84t-7.5 104.5q0 48 5 97.5t21.5 89t47.5 65t84 25.5q55 0 84.5 -25t43.5 -62h2v73z" />
    <glyph glyph-name="h" unicode="h" horiz-adv-x="519" 
d="M45 714h162v-232h2q20 40 51 56.5t73 16.5q69 0 105 -36t36 -114v-405h-162v369q0 29 -12 45.5t-35 16.5t-40.5 -18.5t-17.5 -58.5v-354h-162v714z" />
    <glyph glyph-name="i" unicode="i" 
d="M49 722h162v-124h-162v124zM49 541h162v-541h-162v541z" />
    <glyph glyph-name="j" unicode="j" 
d="M49 722h162v-124h-162v124zM49 541h162v-554q0 -42 -6.5 -72.5t-24.5 -51t-50 -30t-84 -9.5q-19 0 -34 0.5t-35 1.5v111q5 -1 13 -1h10q18 1 28 5.5t14.5 12.5t5.5 21t1 31v535z" />
    <glyph glyph-name="k" unicode="k" horiz-adv-x="519" 
d="M45 714h162v-367h2l121 194h178l-155 -218l174 -323h-177l-101 204l-42 -57v-147h-162v714z" />
    <glyph glyph-name="l" unicode="l" 
d="M49 714h162v-714h-162v714z" />
    <glyph glyph-name="m" unicode="m" horiz-adv-x="796" 
d="M50 541h156v-64h2q17 36 51 57t79 21q18 0 37.5 -2.5t37.5 -11t33.5 -25t24.5 -44.5q28 47 58.5 65t75.5 18q69 0 105 -36t36 -114v-405h-162v369q0 29 -12 45.5t-35 16.5t-40.5 -18.5t-17.5 -58.5v-354h-162v369q0 29 -12 45.5t-35 16.5t-40.5 -18.5t-17.5 -58.5v-354
h-162v541z" />
    <glyph glyph-name="n" unicode="n" horiz-adv-x="519" 
d="M45 541h156v-64h2q17 36 51 57t79 21q69 0 105 -36t36 -114v-405h-162v369q0 29 -12 45.5t-35 16.5t-40.5 -18.5t-17.5 -58.5v-354h-162v541z" />
    <glyph glyph-name="o" unicode="o" horiz-adv-x="500" 
d="M250 -14q-74 0 -118.5 21.5t-67.5 59.5t-30 89.5t-7 112.5t8.5 113t33 90.5t68 60.5t113.5 22q74 0 118 -21.5t67.5 -59.5t30.5 -89.5t7 -112.5t-8.5 -113t-33 -90.5t-68 -60.5t-113.5 -22zM311 270q0 50 -2.5 84.5t-9 55.5t-18 30t-30.5 9q-36 0 -49 -40t-13 -138
q0 -99 13 -139t49 -40q19 0 30.5 9t18 30t9 55t2.5 84z" />
    <glyph glyph-name="p" unicode="p" horiz-adv-x="519" 
d="M204 274q0 -36 1.5 -67t7.5 -54t17.5 -36t32.5 -13q22 0 34.5 11.5t18.5 33t7.5 51.5t1.5 67q0 33 -1.5 63.5t-7.5 54t-19 38t-35 14.5q-36 0 -47 -42t-11 -121zM45 541h156v-66h2q4 13 12.5 27.5t23 26t34.5 19t47 7.5q40 0 71.5 -15.5t52.5 -49t32 -86.5t11 -129
q0 -63 -6 -116t-23 -91.5t-48 -60t-80 -21.5q-33 0 -67 14.5t-54 58.5h-2v-235h-162v717z" />
    <glyph glyph-name="q" unicode="q" horiz-adv-x="519" 
d="M315 274q0 79 -11 121t-47 42q-23 0 -35.5 -14.5t-18.5 -38t-7.5 -54t-1.5 -63.5q0 -37 1.5 -67t7.5 -51.5t18.5 -33t34.5 -11.5q21 0 32.5 13t17.5 36t7.5 54t1.5 67zM312 59h-2q-20 -44 -54 -58.5t-67 -14.5q-50 0 -80.5 21.5t-47.5 60t-23 91.5t-6 116q0 76 11 129
t32 86.5t52 49t72 15.5q27 0 47 -7.5t34 -19t22.5 -26t13.5 -27.5h2v66h156v-717h-162v235z" />
    <glyph glyph-name="r" unicode="r" horiz-adv-x="370" 
d="M45 541h156v-76h2q16 36 47.5 63t82.5 27h12q4 0 14 -2v-152q-12 2 -22.5 3t-22.5 1q-49 0 -78 -22t-29 -76v-307h-162v541z" />
    <glyph glyph-name="s" unicode="s" horiz-adv-x="463" 
d="M169 172q1 -18 3 -33.5t8 -27.5q7 -11 18.5 -18t31.5 -7q29 0 43.5 16t14.5 39q0 19 -12 36t-50 30q-50 17 -87 32t-61.5 34.5t-36.5 47.5t-12 71q0 81 53.5 122t152.5 41q57 0 94.5 -13t60 -34t32 -48.5t9.5 -56.5v-18h-144v10q0 35 -13.5 47.5t-39.5 12.5
q-32 0 -43.5 -14t-11.5 -36q0 -24 19 -36.5t48 -22t62.5 -19.5t62.5 -29t48 -51t19 -84q0 -82 -52.5 -129.5t-154.5 -47.5q-109 0 -157.5 40.5t-48.5 121.5v24h144z" />
    <glyph glyph-name="t" unicode="t" horiz-adv-x="315" 
d="M66 429h-67v112h67v159h162v-159h75v-112h-75v-273q0 -29 11.5 -39.5t40.5 -10.5q5 0 11.5 0.5t11.5 1.5v-108q-47 -6 -93 -6q-42 0 -70 5t-44.5 20.5t-23 44.5t-6.5 76v289z" />
    <glyph glyph-name="u" unicode="u" horiz-adv-x="519" 
d="M474 0h-156v64h-2q-17 -36 -51 -57t-79 -21q-69 0 -105 36t-36 114v405h162v-369q0 -29 12 -45.5t35 -16.5t40.5 18.5t17.5 58.5v354h162v-541z" />
    <glyph glyph-name="v" unicode="v" horiz-adv-x="481" 
d="M11 541h168l63 -399h2l64 399h162l-134 -541h-192z" />
    <glyph glyph-name="w" unicode="w" horiz-adv-x="741" 
d="M9 541h162l52 -399h2l61 399h174l57 -399h2l57 399h156l-117 -541h-183l-59 399h-2l-63 -399h-186z" />
    <glyph glyph-name="x" unicode="x" horiz-adv-x="481" 
d="M149 280l-136 261h162l64 -161l66 161h162l-135 -261l145 -280h-162l-73 175l-76 -175h-162z" />
    <glyph glyph-name="y" unicode="y" horiz-adv-x="481" 
d="M10 541h168l66 -379h2l63 379h162l-145 -545q-14 -52 -29.5 -85.5t-38 -52.5t-54.5 -26.5t-79 -7.5h-37q-8 0 -16.5 0.5t-16.5 1.5v114q10 -2 20 -3t20 -1q23 0 42 12.5t26 47.5z" />
    <glyph glyph-name="z" unicode="z" horiz-adv-x="463" 
d="M31 124l204 293h-195v124h387v-124l-210 -293h215v-124h-401v124z" />
    <glyph glyph-name="braceleft" unicode="{" horiz-adv-x="333" 
d="M91 131q0 38 -27 64t-66 26v88q18 0 35 6t29.5 17t20.5 26.5t8 33.5v187q0 66 36.5 100.5t106.5 34.5h101v-112h-40q-17 0 -27.5 -6t-16.5 -16t-8 -23.5t-2 -27.5v-152q0 -45 -27 -75t-72 -36v-2q51 -7 75 -37t24 -81v-145q0 -29 10.5 -51t43.5 -22h40v-112h-101
q-66 0 -104.5 33t-38.5 102v180z" />
    <glyph glyph-name="bar" unicode="|" horiz-adv-x="222" 
d="M46 728h130v-742h-130v742z" />
    <glyph glyph-name="braceright" unicode="}" horiz-adv-x="333" 
d="M92 153q0 45 27 75t72 36v2q-51 7 -75 37t-24 81v145q0 29 -10.5 51t-43.5 22h-40v112h101q66 0 104.5 -33t38.5 -102v-180q0 -38 27 -64t66 -26v-88q-18 0 -35 -6t-29.5 -17t-20.5 -26.5t-8 -33.5v-187q0 -66 -36.5 -100.5t-106.5 -34.5h-101v112h40q17 0 27.5 6
t16.5 16t8 23.5t2 27.5v152z" />
    <glyph glyph-name="asciitilde" unicode="~" horiz-adv-x="600" 
d="M531 240q-20 -38 -49 -62t-74 -24q-37 0 -65 10.5t-53 23.5t-47.5 23.5t-47.5 10.5q-15 0 -29 -7t-26.5 -17.5t-21.5 -22.5t-13 -21l-36 112q20 38 49 62t74 24q37 0 65 -10.5t53 -23.5t47.5 -23.5t47.5 -10.5q15 0 29 7t26.5 17.5t21.5 22.5t13 21z" />
    <glyph glyph-name="Euro" unicode="&#x20ac;" horiz-adv-x="520" 
d="M467 529q-6 11 -15.5 22.5t-26.5 22.5q-16 10 -36 16t-42 6q-17 0 -37 -5t-34 -17q-20 -17 -30 -44.5t-11 -53.5h216l-40 -94h-180q-1 -36 0 -74h156l-40 -94h-110q0 -23 7.5 -44.5t19.5 -36.5q8 -10 28 -22.5t55 -12.5q20 0 42 6t40 16q21 11 40 28.5t33 37.5v-142
q-13 -11 -30 -21t-43 -19q-28 -10 -56 -14t-58 -4q-39 0 -80 8.5t-77 37.5q-37 29 -60.5 77.5t-28.5 104.5h-93l40 94h47q-2 39 0 74h-87l40 94h51q3 22 9 47t17 49.5t27.5 47t39.5 40.5q21 16 44 26t45.5 14.5t43.5 6t38 1.5q29 0 58.5 -3.5t62.5 -15.5q21 -8 37 -17.5
t31 -24.5z" />
    <glyph glyph-name="quotesinglbase" unicode="&#x201a;" 
d="M52 180h156v-149q0 -38 -5.5 -72.5t-22 -62t-47 -45t-81.5 -20.5v78q34 0 48 23t14 74h-62v174z" />
    <glyph glyph-name="florin" unicode="&#x192;" horiz-adv-x="520" 
d="M2 -68q7 -1 16.5 -1.5t22.5 -0.5q16 0 28.5 3.5t21.5 13.5t16 27.5t12 44.5l60 308h-108l19 94h107l27 137q15 78 62 117t138 39q20 0 40 -1.5t45 -3.5l-22 -103q-9 1 -16.5 1.5t-15.5 0.5q-20 0 -33.5 -3.5t-24 -14t-17.5 -30.5t-13 -52l-17 -87h112l-19 -94h-111
l-63 -325q-8 -41 -21.5 -74t-37 -56t-57.5 -35.5t-82 -12.5q-27 0 -51.5 2.5t-38.5 5.5z" />
    <glyph glyph-name="quotedblbase" unicode="&#x201e;" horiz-adv-x="481" 
d="M274 180h156v-149q0 -38 -5.5 -72.5t-22 -62t-47 -45t-81.5 -20.5v78q34 0 48 23t14 74h-62v174zM51 180h156v-149q0 -38 -5.5 -72.5t-22 -62t-47 -45t-81.5 -20.5v78q34 0 48 23t14 74h-62v174z" />
    <glyph glyph-name="ellipsis" unicode="&#x2026;" horiz-adv-x="1000" 
d="M755 180h156v-180h-156v180zM422 180h156v-180h-156v180zM89 180h156v-180h-156v180z" />
    <glyph glyph-name="dagger" unicode="&#x2020;" horiz-adv-x="520" 
d="M179 391h-167v130h167v193h162v-193h167v-130h-167v-529h-162v529z" />
    <glyph glyph-name="daggerdbl" unicode="&#x2021;" horiz-adv-x="520" 
d="M179 54h-167v130h167v207h-167v130h167v193h162v-193h167v-130h-167v-207h166v-130h-166v-192h-162v192z" />
    <glyph glyph-name="circumflex" unicode="&#x2c6;" 
d="M46 741h168l71 -142h-118l-37 81l-36 -81h-119z" />
    <glyph glyph-name="perthousand" unicode="&#x2030;" horiz-adv-x="1111" 
d="M435 178q0 43 6.5 78t24 60.5t48.5 39.5t79 14q54 0 85 -15t47.5 -41t21 -61t4.5 -75t-4.5 -75t-20.5 -61t-47.5 -41t-84.5 -15q-54 0 -85.5 15t-48 41t-21 61t-4.5 75zM553 178q0 -58 8.5 -83.5t31.5 -25.5q26 0 33 24.5t7 89.5q0 34 -2 54.5t-7 31.5t-12.5 14.5
t-18.5 3.5q-14 0 -22 -8.5t-12.5 -23.5t-5.5 -35t0 -42zM11 516q0 43 6.5 78t24 60.5t48.5 39.5t79 14q54 0 85 -15t47.5 -41t21 -61t4.5 -75t-4.5 -75t-20.5 -61t-47.5 -41t-84.5 -15q-54 0 -85.5 15t-48 41t-21 61t-4.5 75zM784 178q0 43 6.5 78t24 60.5t48.5 39.5t79 14
q54 0 85 -15t47.5 -41t21 -61t4.5 -75t-4.5 -75t-20.5 -61t-47.5 -41t-84.5 -15q-54 0 -85.5 15t-48 41t-21 61t-4.5 75zM129 516q0 -58 8.5 -83.5t31.5 -25.5q26 0 33 24.5t7 89.5q0 34 -2 54.5t-7 31.5t-12.5 14.5t-18.5 3.5q-14 0 -22 -8.5t-12.5 -23.5t-5.5 -35t0 -42z
M489 708h101l-314 -722h-101zM902 178q0 -58 8.5 -83.5t31.5 -25.5q26 0 33 24.5t7 89.5q0 34 -2 54.5t-7 31.5t-12.5 14.5t-18.5 3.5q-14 0 -22 -8.5t-12.5 -23.5t-5.5 -35t0 -42z" />
    <glyph glyph-name="Scaron" unicode="&#x160;" horiz-adv-x="537" 
d="M191 218v-25q0 -41 14.5 -68t58.5 -27q22 0 36.5 7.5t23.5 19.5t12.5 27.5t3.5 30.5q0 38 -22.5 59.5t-57 36.5t-74 29t-74 38.5t-57 64.5t-22.5 107q0 43 12 81t40 66.5t72.5 45.5t109.5 17q63 0 106.5 -15t70.5 -41.5t39 -62t12 -76.5v-17h-162q0 52 -14 75
q-15 25 -51 25q-67 0 -67 -77q0 -38 22.5 -59t57 -36t74 -29.5t74 -38t57 -62t22.5 -101.5q0 -61 -16.5 -104t-48 -70.5t-76.5 -40t-103 -12.5q-46 0 -88.5 8t-75 29t-52 57t-19.5 92v46h162zM115 901h119l36 -81l37 81h118l-71 -142h-168z" />
    <glyph glyph-name="guilsinglleft" unicode="&#x2039;" 
d="M52 386l156 110v-150l-83 -57l83 -57v-150l-156 110v194z" />
    <glyph glyph-name="OE" unicode="&#x152;" horiz-adv-x="778" 
d="M210 357q0 -59 1 -106.5t8.5 -81.5t23.5 -52.5t45 -18.5q19 0 32 6t21 16t12 22.5t6 25.5q3 20 4.5 57.5t1.5 77.5v54v53q0 42 -1.5 79t-4.5 57q-2 13 -6 25.5t-12 22.5t-21 16t-32 6q-29 0 -45 -18.5t-23.5 -52.5t-8.5 -82t-1 -106zM383 37q-22 -24 -56 -37.5t-72 -13.5
q-75 0 -118.5 29t-66 79t-28.5 118t-6 145q0 37 1 79.5t7 83.5t19 78.5t37 66.5t61 46t91 17q35 0 69 -11.5t60 -37.5v35h372v-136h-232v-143h219v-136h-219v-163h241v-136h-379v37z" />
    <glyph glyph-name="Zcaron" horiz-adv-x="481" 
d="M23 124l242 454h-223v136h416v-118l-245 -460h245v-136h-435v124zM99 901h119l36 -81l37 81h118l-71 -142h-168z" />
    <glyph glyph-name="Zcaron" unicode="&#x17d;" horiz-adv-x="481" 
d="M23 124l242 454h-223v136h416v-118l-245 -460h245v-136h-435v124zM99 901h119l36 -81l37 81h118l-71 -142h-168z" />
    <glyph glyph-name="quoteleft" unicode="&#x2018;" 
d="M52 514q0 37 5 72t21.5 62.5t47.5 45t82 20.5v-78q-34 0 -48 -23t-14 -74h62v-174h-156v149z" />
    <glyph glyph-name="quoteright" unicode="&#x2019;" 
d="M208 565q0 -38 -5.5 -72.5t-22 -62t-47 -45t-81.5 -20.5v78q34 0 48 23t14 74h-62v174h156v-149z" />
    <glyph glyph-name="quotedblleft" unicode="&#x201c;" horiz-adv-x="481" 
d="M274 514q0 37 5 72t21.5 62.5t47.5 45t82 20.5v-78q-34 0 -48 -23t-14 -74h62v-174h-156v149zM51 514q0 37 5 72t21.5 62.5t47.5 45t82 20.5v-78q-34 0 -48 -23t-14 -74h62v-174h-156v149z" />
    <glyph glyph-name="quotedblright" unicode="&#x201d;" horiz-adv-x="481" 
d="M274 714h156v-149q0 -38 -5.5 -72.5t-22 -62t-47 -45t-81.5 -20.5v78q34 0 48 23t14 74h-62v174zM51 714h156v-149q0 -38 -5.5 -72.5t-22 -62t-47 -45t-81.5 -20.5v78q34 0 48 23t14 74h-62v174z" />
    <glyph glyph-name="bullet" unicode="&#x2022;" horiz-adv-x="500" 
d="M72 357q0 37 14 69.5t38 56.5t56.5 38t69.5 14t69.5 -14t56.5 -38t38 -56.5t14 -69.5t-14 -69.5t-38 -56.5t-56.5 -38t-69.5 -14t-69.5 14t-56.5 38t-38 56.5t-14 69.5z" />
    <glyph glyph-name="endash" unicode="&#x2013;" horiz-adv-x="500" 
d="M0 351h500v-124h-500v124z" />
    <glyph glyph-name="emdash" unicode="&#x2014;" horiz-adv-x="1000" 
d="M0 351h1000v-124h-1000v124z" />
    <glyph glyph-name="tilde" unicode="&#x2dc;" 
d="M292 738q-2 -22 -7.5 -46t-17 -44t-30 -33t-45.5 -13q-18 0 -35.5 4.5t-32.5 10.5t-27.5 10.5t-22.5 4.5q-14 0 -20.5 -11t-8.5 -19h-77q2 26 8.5 50.5t18.5 43.5t28.5 30.5t38.5 11.5q20 0 37 -4.5t31 -10.5q15 -5 27.5 -10t23.5 -5q19 0 24 9.5t7 20.5h80z" />
    <glyph glyph-name="trademark" unicode="&#x2122;" horiz-adv-x="990" 
d="M134 614h-104v100h338v-100h-104v-312h-130v312zM836 584h-2l-93 -282h-98l-93 282h-2v-282h-112v412h174l81 -250h2l81 250h174v-412h-112v282z" />
    <glyph glyph-name="scaron" unicode="&#x161;" horiz-adv-x="463" 
d="M169 172q1 -18 3 -33.5t8 -27.5q7 -11 18.5 -18t31.5 -7q29 0 43.5 16t14.5 39q0 19 -12 36t-50 30q-50 17 -87 32t-61.5 34.5t-36.5 47.5t-12 71q0 81 53.5 122t152.5 41q57 0 94.5 -13t60 -34t32 -48.5t9.5 -56.5v-18h-144v10q0 35 -13.5 47.5t-39.5 12.5
q-32 0 -43.5 -14t-11.5 -36q0 -24 19 -36.5t48 -22t62.5 -19.5t62.5 -29t48 -51t19 -84q0 -82 -52.5 -129.5t-154.5 -47.5q-109 0 -157.5 40.5t-48.5 121.5v24h144zM80 741h119l36 -81l37 81h118l-71 -142h-168z" />
    <glyph glyph-name="guilsinglright" unicode="&#x203a;" 
d="M52 232l83 57l-83 57v150l156 -110v-194l-156 -110v150z" />
    <glyph glyph-name="oe" unicode="&#x153;" horiz-adv-x="741" 
d="M572 338q0 57 -10 87t-42 30q-38 0 -48.5 -31t-10.5 -86h111zM189 270q0 -46 2 -79.5t8.5 -55.5t18.5 -32.5t32 -10.5t32 12.5t18.5 35.5t8.5 55.5t2 73.5q0 93 -10.5 136.5t-50.5 43.5q-20 0 -32 -12.5t-18.5 -35.5t-8.5 -56t-2 -75zM461 244v-33q0 -63 11.5 -94
t44.5 -31q29 0 41 24t15 75h150q-5 -102 -53 -150q-48 -49 -141 -49q-63 0 -97.5 20t-50.5 51q-26 -44 -65 -57.5t-88 -13.5q-51 0 -89 15t-62.5 48t-37 86t-12.5 130q0 61 8 114t31.5 92t65 61.5t109.5 22.5q57 0 91 -17t57 -52q27 39 61.5 54t82.5 15q58 0 96 -20t60 -55
t30.5 -84.5t8.5 -107.5v-44h-267z" />
    <glyph glyph-name="zcaron" horiz-adv-x="463" 
d="M31 124l204 293h-195v124h387v-124l-210 -293h215v-124h-401v124zM81 741h119l36 -81l37 81h118l-71 -142h-168z" />
    <glyph glyph-name="zcaron" unicode="&#x17e;" horiz-adv-x="463" 
d="M31 124l204 293h-195v124h387v-124l-210 -293h215v-124h-401v124zM81 741h119l36 -81l37 81h118l-71 -142h-168z" />
    <glyph glyph-name="Ydieresis" unicode="&#x178;" horiz-adv-x="536" 
d="M184 281l-181 433h186l80 -265h2l82 265h180l-181 -433v-281h-168v281zM297 895h124v-130h-124v130zM121 895h124v-130h-124v130z" />
    <glyph glyph-name="uni00A0" unicode="&#xa0;" 
 />
    <glyph glyph-name="exclamdown" unicode="&#xa1;" horiz-adv-x="334" 
d="M244 394h-156v150h156v-150zM248 -170h-162v234l18 276h124l20 -276v-234z" />
    <glyph glyph-name="cent" unicode="&#xa2;" horiz-adv-x="520" 
d="M228 -14q-63 5 -100 31.5t-56 68.5t-24 94t-5 110q0 54 8 100.5t29 81.5t56.5 56.5t91.5 26.5v80h78v-80q51 -5 84 -22.5t52.5 -46t27 -66.5t7.5 -83h-150q0 60 -14.5 86t-46.5 26q-20 0 -32 -12.5t-18.5 -35.5t-8.5 -56t-2 -75q0 -46 2 -79.5t8.5 -55.5t18.5 -32.5
t32 -10.5q18 0 29.5 6.5t18 21.5t9.5 39.5t4 60.5h150q-1 -114 -42 -169t-129 -65v-91h-78v91z" />
    <glyph glyph-name="sterling" unicode="&#xa3;" horiz-adv-x="520" 
d="M17 86q65 43 90.5 88t25.5 82q0 21 -5 36h-107v94h67q-21 37 -32.5 73.5t-11.5 69.5q0 40 15 73t42.5 56.5t67.5 36.5t90 13q66 0 110.5 -14.5t71.5 -41.5t39 -65t12 -85h-150v14q0 86 -65 86q-28 0 -49.5 -15.5t-21.5 -57.5q0 -12 2 -23t8 -26.5t15.5 -37.5t24.5 -56
h172v-94h-138q5 -12 5 -28q0 -42 -26 -77.5t-77 -74.5l2 -2q19 11 50 11q17 0 29 -3.5t23 -8t24 -8t32 -3.5q28 0 56.5 12t47.5 25l47 -103q-49 -31 -92 -38.5t-69 -7.5q-20 0 -41.5 5.5t-44 12.5t-46 12.5t-46.5 5.5q-29 0 -52 -8t-52 -22z" />
    <glyph glyph-name="currency" unicode="&#xa4;" horiz-adv-x="520" 
d="M56 209q-20 29 -31 64t-11 74q0 38 11 73.5t31 64.5l-54 54l66 66l54 -54q61 42 138 42q38 0 73.5 -11t64.5 -31l54 54l66 -66l-54 -54q42 -62 42 -138q0 -78 -43 -137l55 -55l-66 -66l-54 54q-29 -20 -64 -31t-74 -11q-78 0 -137 43l-55 -55l-66 66zM138 347
q0 -26 8.5 -49.5t24 -41t38 -27.5t51.5 -10q28 0 51 10t38.5 27.5t24 41t8.5 49.5t-8.5 49.5t-24 41t-38.5 27.5t-51 10q-29 0 -51.5 -10t-38 -27.5t-24 -41t-8.5 -49.5z" />
    <glyph glyph-name="yen" unicode="&#xa5;" horiz-adv-x="520" 
d="M182 132h-145v94h145v55l-8 19h-137v94h98l-129 300h171l84 -257h2l86 257h165l-129 -300h98v-94h-137l-8 -19v-55h145v-94h-145v-132h-156v132z" />
    <glyph glyph-name="brokenbar" unicode="&#xa6;" horiz-adv-x="222" 
d="M46 728h130v-271h-130v271zM46 257h130v-271h-130v271z" />
    <glyph glyph-name="section" unicode="&#xa7;" horiz-adv-x="519" 
d="M363 275q0 25 -18 41.5t-42.5 28.5t-51 21.5t-44.5 21.5q-25 -13 -38 -31.5t-13 -35.5q0 -25 15 -38.5t38.5 -24t53.5 -21.5t60 -31q14 11 27 30t13 39zM199 41v-16q-1 -32 14.5 -51.5t43.5 -19.5q54 0 54 67q0 27 -21 43.5t-53 30.5t-68.5 28.5t-68.5 36.5t-53 55
t-21 84q0 48 25.5 86.5t59.5 57.5q-34 22 -46.5 51t-12.5 64q0 46 16.5 78.5t44.5 52.5t66 29.5t80 9.5q61 0 102 -12t65.5 -34t34.5 -52.5t10 -67.5v-8h-150v15q0 30 -16.5 41.5t-40.5 11.5q-32 0 -44 -16t-12 -33q0 -25 21 -40t53 -28t68.5 -27t68.5 -36t53 -56.5
t21 -87.5q0 -51 -20.5 -85t-55.5 -63q23 -22 39.5 -54t16.5 -74q0 -51 -17.5 -85t-47 -53.5t-69 -27.5t-83.5 -8q-59 0 -99.5 13.5t-65.5 36.5t-36.5 53.5t-11.5 64.5v25h156z" />
    <glyph glyph-name="dieresis" unicode="&#xa8;" 
d="M156 735h124v-130h-124v130zM-20 735h124v-130h-124v130z" />
    <glyph glyph-name="copyright" unicode="&#xa9;" horiz-adv-x="800" 
d="M29 357q0 77 29 144.5t79.5 118t118 79.5t144.5 29t144.5 -29t118 -79.5t79.5 -118t29 -144.5t-29 -144.5t-79.5 -118t-118 -79.5t-144.5 -29t-144.5 29t-118 79.5t-79.5 118t-29 144.5zM135 357q0 -58 21 -107.5t57 -86t84.5 -57t102.5 -20.5t102.5 20.5t84.5 57t57 86
t21 107.5t-21 107.5t-57 86t-84.5 57t-102.5 20.5t-102.5 -20.5t-84.5 -57t-57 -86t-21 -107.5zM599 294q-6 -38 -23.5 -68t-42 -50t-55 -30.5t-63.5 -10.5q-50 0 -89.5 17t-67 47t-42 70.5t-14.5 87.5q0 48 14 88.5t41 70t66 46.5t89 17q34 0 64.5 -10t55 -29.5t40.5 -48.5
t22 -68h-98q-8 27 -30.5 44.5t-58.5 17.5q-25 0 -44.5 -10t-33 -27.5t-20.5 -40.5t-7 -50q0 -26 7.5 -49t21.5 -40.5t33 -28t42 -10.5q35 0 60 18t29 47h104z" />
    <glyph glyph-name="ordfeminine" unicode="&#xaa;" horiz-adv-x="325" 
d="M189 531q-21 -12 -32 -15t-19 -10q-7 -6 -10.5 -13t-3.5 -19q0 -15 7.5 -25t21.5 -10q12 0 24 9t12 29v54zM198 374q-10 16 -10 37h-2q-2 -11 -9 -19t-17 -13q-21 -12 -51 -12q-48 0 -72.5 22t-24.5 73q0 28 12 49.5t33 32.5q20 10 48 15.5t51 11.5q21 6 27 12t6 25
q0 12 -7 20t-22 8q-19 0 -26 -11t-8 -29h-112q1 36 11 57.5t29 33.5t43.5 16.5t66.5 4.5q75 0 106 -22.5t31 -73.5v-168q0 -18 1.5 -38.5t10.5 -31.5h-115z" />
    <glyph glyph-name="guillemotleft" unicode="&#xab;" horiz-adv-x="444" 
d="M242 386l156 110v-150l-83 -57l83 -57v-150l-156 110v194zM46 386l156 110v-150l-83 -57l83 -57v-150l-156 110v194z" />
    <glyph glyph-name="logicalnot" unicode="&#xac;" horiz-adv-x="600" 
d="M423 297h-376v130h506v-329h-130v199z" />
    <glyph glyph-name="uni00AD" unicode="&#xad;" horiz-adv-x="370" 
d="M34 357h302v-136h-302v136z" />
    <glyph glyph-name="registered" unicode="&#xae;" horiz-adv-x="800" 
d="M29 357q0 77 29 144.5t79.5 118t118 79.5t144.5 29t144.5 -29t118 -79.5t79.5 -118t29 -144.5t-29 -144.5t-79.5 -118t-118 -79.5t-144.5 -29t-144.5 29t-118 79.5t-79.5 118t-29 144.5zM135 357q0 -58 21 -107.5t57 -86t84.5 -57t102.5 -20.5t102.5 20.5t84.5 57t57 86
t21 107.5t-21 107.5t-57 86t-84.5 57t-102.5 20.5t-102.5 -20.5t-84.5 -57t-57 -86t-21 -107.5zM334 386h68q30 0 49 9.5t19 43.5q0 18 -7.5 28t-18.5 15.5t-25 7t-26 1.5h-59v-105zM242 563h163q81 0 120 -33t39 -96q0 -54 -28.5 -82.5t-70.5 -33.5l103 -168h-104l-93 164
h-35v-164h-94v413z" />
    <glyph glyph-name="macron" unicode="&#xaf;" 
d="M-25 714h310v-88h-310v88z" />
    <glyph glyph-name="degree" unicode="&#xb0;" horiz-adv-x="400" 
d="M48 556q0 31 12 59t32.5 48.5t48 32.5t59.5 12q31 0 59 -12t48.5 -32.5t32.5 -48.5t12 -59q0 -32 -12 -59.5t-32.5 -48t-48.5 -32.5t-59 -12q-32 0 -59.5 12t-48 32.5t-32.5 48t-12 59.5zM126 556q0 -31 21.5 -52.5t52.5 -21.5t52.5 21.5t21.5 52.5t-21.5 52.5
t-52.5 21.5t-52.5 -21.5t-21.5 -52.5z" />
    <glyph glyph-name="plusminus" unicode="&#xb1;" horiz-adv-x="600" 
d="M47 130h506v-130h-506v130zM235 271h-188v130h188v105h130v-105h188v-130h-188v-105h-130v105z" />
    <glyph glyph-name="twosuperior" unicode="&#xb2;" horiz-adv-x="338" 
d="M11 562v19q0 64 37.5 95.5t122.5 31.5q48 0 78.5 -9t48.5 -25.5t24.5 -39t6.5 -49.5q0 -20 -2.5 -37.5t-11.5 -34.5t-28 -36t-52 -42q-29 -20 -44.5 -33.5t-23.5 -27.5h158v-94h-316q2 54 30.5 101t79.5 89q30 24 46 40t23.5 29t9 23t1.5 22q0 18 -6.5 32t-26.5 14
q-14 0 -21.5 -7.5t-11 -18t-4 -22.5t-0.5 -20h-118z" />
    <glyph glyph-name="threesuperior" unicode="&#xb3;" horiz-adv-x="338" 
d="M13 578q0 67 35 99q19 16 48.5 23.5t77.5 7.5q81 0 116.5 -27.5t35.5 -90.5q0 -32 -18.5 -55.5t-58.5 -30.5v-2q48 -8 66.5 -30.5t18.5 -64.5q0 -74 -44 -104t-117 -30q-41 0 -72.5 5.5t-53 21.5t-32.5 43.5t-11 71.5h130q0 -11 1.5 -22.5t5.5 -20.5q7 -21 26 -21
q17 0 27 12t10 39q0 33 -12.5 45.5t-44.5 12.5h-28v78h30q26 0 36.5 15.5t10.5 38.5q0 17 -8 27.5t-22 10.5q-13 0 -24 -11.5t-11 -40.5h-118z" />
    <glyph glyph-name="acute" unicode="&#xb4;" 
d="M119 741h156l-100 -142h-106z" />
    <glyph glyph-name="mu" unicode="&#xb5;" horiz-adv-x="519" 
d="M474 0h-156v64h-2q-6 -14 -15 -28t-20.5 -25t-24.5 -18t-27 -7q-15 0 -22 4v-166h-162v717h162v-369q0 -29 12 -45.5t35 -16.5t40.5 18.5t17.5 58.5v354h162v-541z" />
    <glyph glyph-name="paragraph" unicode="&#xb6;" horiz-adv-x="600" 
d="M193 337q-29 0 -56.5 12.5t-50 36.5t-36 58t-13.5 78q0 91 49 141.5t131 50.5h302v-852h-130v752h-66v-752h-130v475z" />
    <glyph glyph-name="periodcentered" unicode="&#xb7;" 
d="M27 273q0 21 8 40t22 33t33 22t40 8t40 -8t33 -22t22 -33t8 -40t-8 -40t-22 -33t-33 -22t-40 -8t-40 8t-33 22t-22 33t-8 40z" />
    <glyph glyph-name="cedilla" unicode="&#xb8;" 
d="M34 -153q14 -6 33 -10.5t40 -4.5q26 0 36 10t10 24q0 13 -13.5 22t-32.5 9q-11 0 -19 -2.5t-10 -3.5l-23 19l52 90h59l-35 -60q9 4 26 4q48 0 69 -24t21 -53q0 -37 -29.5 -64t-90.5 -27q-37 0 -65 5.5t-49 13.5z" />
    <glyph glyph-name="onesuperior" unicode="&#xb9;" horiz-adv-x="338" 
d="M118 566h-81v78h13q31 0 51 6.5t32 16t17.5 21t7.5 20.5h90v-428h-130v286z" />
    <glyph glyph-name="ordmasculine" unicode="&#xba;" horiz-adv-x="325" 
d="M315 538q0 -36 -5.5 -67.5t-22 -54.5t-46.5 -36t-78 -13q-51 0 -81.5 13t-46.5 35.5t-20.5 53.5t-4.5 67q0 37 5.5 68.5t22 54.5t46.5 36t79 13q51 0 81 -13t46 -35.5t20.5 -54t4.5 -67.5zM128 538q0 -54 7.5 -76.5t27.5 -22.5q21 0 27.5 22t6.5 76t-6.5 76.5t-27.5 22.5
q-20 0 -27.5 -22t-7.5 -76z" />
    <glyph glyph-name="guillemotright" unicode="&#xbb;" horiz-adv-x="444" 
d="M242 232l83 55l-83 59v150l156 -110v-194l-156 -110v150zM46 232l83 55l-83 59v150l156 -110v-194l-156 -110v150z" />
    <glyph glyph-name="onequarter" unicode="&#xbc;" horiz-adv-x="778" 
d="M98 566h-81v78h13q31 0 51 6.5t32 16t17.5 21t7.5 20.5h90v-428h-130v286zM510 725h99l-400 -756h-99zM426 168l141 252h142v-252h44v-94h-44v-74h-124v74h-159v94zM585 296h-2l-67 -128h69v128z" />
    <glyph glyph-name="onehalf" unicode="&#xbd;" horiz-adv-x="778" 
d="M435 282v19q0 64 37.5 95.5t122.5 31.5q48 0 78.5 -9t48.5 -25.5t24.5 -39t6.5 -49.5q0 -20 -2.5 -37.5t-11.5 -34.5t-28 -36t-52 -42q-29 -20 -44.5 -33.5t-23.5 -27.5h158v-94h-316q2 54 30.5 101t79.5 89q30 24 46 40t23.5 29t9 23t1.5 22q0 18 -6.5 32t-26.5 14
q-14 0 -21.5 -7.5t-11 -18t-4 -22.5t-0.5 -20h-118zM98 566h-81v78h13q31 0 51 6.5t32 16t17.5 21t7.5 20.5h90v-428h-130v286zM510 725h99l-400 -756h-99z" />
    <glyph glyph-name="threequarters" unicode="&#xbe;" horiz-adv-x="778" 
d="M7 578q0 67 35 99q19 16 48.5 23.5t77.5 7.5q81 0 116.5 -27.5t35.5 -90.5q0 -32 -18.5 -55.5t-58.5 -30.5v-2q48 -8 66.5 -30.5t18.5 -64.5q0 -74 -44 -104t-117 -30q-41 0 -72.5 5.5t-53 21.5t-32.5 43.5t-11 71.5h130q0 -11 1.5 -22.5t5.5 -20.5q7 -21 26 -21
q17 0 27 12t10 39q0 33 -12.5 45.5t-44.5 12.5h-28v78h30q26 0 36.5 15.5t10.5 38.5q0 17 -8 27.5t-22 10.5q-13 0 -24 -11.5t-11 -40.5h-118zM550 725h99l-400 -756h-99zM459 168l141 252h142v-252h44v-94h-44v-74h-124v74h-159v94zM618 296h-2l-67 -128h69v128z" />
    <glyph glyph-name="questiondown" unicode="&#xbf;" horiz-adv-x="500" 
d="M337 394h-156v150h156v-150zM461 53v-20q0 -103 -51.5 -160t-157.5 -57q-103 0 -158 50.5t-55 143.5q0 42 10.5 74t27 56.5t35 44.5t35 39t27 38.5t10.5 44.5v33h150v-32q0 -49 -8.5 -80t-25.5 -56q-15 -21 -33.5 -37.5t-34.5 -35.5t-26.5 -43t-10.5 -61q0 -35 12 -54
t43 -19q32 0 46.5 29.5t14.5 101.5h150z" />
    <glyph glyph-name="Agrave" unicode="&#xc0;" horiz-adv-x="574" 
d="M184 714h210l178 -714h-174l-26 136h-171l-25 -136h-174zM286 584h-2l-59 -318h122zM150 901h156l50 -142h-106z" />
    <glyph glyph-name="Aacute" unicode="&#xc1;" horiz-adv-x="574" 
d="M184 714h210l178 -714h-174l-26 136h-171l-25 -136h-174zM286 584h-2l-59 -318h122zM282 901h156l-100 -142h-106z" />
    <glyph glyph-name="Acircumflex" unicode="&#xc2;" horiz-adv-x="574" 
d="M184 714h210l178 -714h-174l-26 136h-171l-25 -136h-174zM286 584h-2l-59 -318h122zM201 901h168l71 -142h-118l-37 81l-36 -81h-119z" />
    <glyph glyph-name="Atilde" unicode="&#xc3;" horiz-adv-x="574" 
d="M184 714h210l178 -714h-174l-26 136h-171l-25 -136h-174zM286 584h-2l-59 -318h122zM449 898q-2 -22 -7.5 -46t-17 -44t-30 -33t-45.5 -13q-18 0 -35.5 4.5t-32.5 10.5t-27.5 10.5t-22.5 4.5q-14 0 -20.5 -11t-8.5 -19h-77q2 26 8.5 50.5t18.5 43.5t28.5 30.5t38.5 11.5
q20 0 37 -4.5t31 -10.5q15 -5 27.5 -10t23.5 -5q19 0 24 9.5t7 20.5h80z" />
    <glyph glyph-name="Adieresis" unicode="&#xc4;" horiz-adv-x="574" 
d="M184 714h210l178 -714h-174l-26 136h-171l-25 -136h-174zM286 584h-2l-59 -318h122zM313 895h124v-130h-124v130zM137 895h124v-130h-124v130z" />
    <glyph glyph-name="Aring" unicode="&#xc5;" horiz-adv-x="574" 
d="M184 714h210l178 -714h-174l-26 136h-171l-25 -136h-174zM286 584h-2l-59 -318h122zM226 850q0 -25 17.5 -42.5t42.5 -17.5t42.5 17.5t17.5 42.5t-17.5 42.5t-42.5 17.5t-42.5 -17.5t-17.5 -42.5zM165 850q0 26 9.5 47.5t26 37t38.5 24t47 8.5t47 -8.5t38.5 -24t26 -37
t9.5 -47.5t-9.5 -47.5t-26 -36.5t-38.5 -23t-47 -8t-47 8t-38.5 23t-26 36.5t-9.5 47.5z" />
    <glyph glyph-name="AE" unicode="&#xc6;" horiz-adv-x="796" 
d="M377 578h-8l-100 -312h108v312zM279 714h479v-136h-225v-143h210v-136h-210v-163h234v-136h-390v136h-150l-44 -136h-174z" />
    <glyph glyph-name="Ccedilla" unicode="&#xc7;" horiz-adv-x="537" 
d="M176 -153q14 -6 33 -10.5t40 -4.5q26 0 36 10t10 24q0 13 -13.5 22t-32.5 9q-11 0 -19 -2.5t-10 -3.5l-23 19l44 77q-63 5 -100 27q-36 22 -56.5 56.5t-31.5 78.5t-14 97.5t-3 115.5q0 69 5.5 134.5t29.5 117t74 83t139 31.5q111 0 170 -53t59 -179v-30h-162
q0 78 -13 114t-55 36q-25 0 -39.5 -13t-22 -42.5t-9.5 -77.5t-2 -118q0 -80 2 -131.5t10 -81.5t23.5 -42t41.5 -12q23 0 36.5 13t21 36.5t10 57t2.5 75.5h162v-25q0 -44 -5.5 -82.5t-19 -70t-38 -56t-61.5 -40.5q-37 -14 -95 -19l-27 -47q9 4 26 4q48 0 69 -24t21 -53
q0 -37 -29.5 -64t-90.5 -27q-37 0 -65 5.5t-49 13.5z" />
    <glyph glyph-name="Egrave" unicode="&#xc8;" horiz-adv-x="500" 
d="M52 714h413v-136h-245v-143h230v-136h-230v-163h256v-136h-424v714zM135 901h156l50 -142h-106z" />
    <glyph glyph-name="Eacute" unicode="&#xc9;" horiz-adv-x="500" 
d="M52 714h413v-136h-245v-143h230v-136h-230v-163h256v-136h-424v714zM251 901h156l-100 -142h-106z" />
    <glyph glyph-name="Ecircumflex" unicode="&#xca;" horiz-adv-x="500" 
d="M52 714h413v-136h-245v-143h230v-136h-230v-163h256v-136h-424v714zM174 901h168l71 -142h-118l-37 81l-36 -81h-119z" />
    <glyph glyph-name="Edieresis" unicode="&#xcb;" horiz-adv-x="500" 
d="M52 714h413v-136h-245v-143h230v-136h-230v-163h256v-136h-424v714zM283 895h124v-130h-124v130zM107 895h124v-130h-124v130z" />
    <glyph glyph-name="Igrave" unicode="&#xcc;" horiz-adv-x="278" 
d="M55 714h168v-714h-168v714zM15 901h156l50 -142h-106z" />
    <glyph glyph-name="Iacute" unicode="&#xcd;" horiz-adv-x="278" 
d="M55 714h168v-714h-168v714zM107 901h156l-100 -142h-106z" />
    <glyph glyph-name="Icircumflex" unicode="&#xce;" horiz-adv-x="278" 
d="M55 714h168v-714h-168v714zM55 901h168l71 -142h-118l-37 81l-36 -81h-119z" />
    <glyph glyph-name="Idieresis" unicode="&#xcf;" horiz-adv-x="278" 
d="M55 714h168v-714h-168v714zM165 895h124v-130h-124v130zM-11 895h124v-130h-124v130z" />
    <glyph glyph-name="Eth" unicode="&#xd0;" horiz-adv-x="574" 
d="M52 317h-52v112h52v285h245q62 0 107 -17.5t74 -56.5t43.5 -103t16.5 -157q-2 -97 -11.5 -168.5t-36.5 -118.5t-77 -70t-133 -23h-228v317zM220 124h45q29 0 49 8t32.5 34t18 74.5t5.5 128.5q0 65 -3.5 108t-14.5 68t-31.5 35t-53.5 10h-47v-161h62v-112h-62v-193z" />
    <glyph glyph-name="Ntilde" unicode="&#xd1;" horiz-adv-x="593" 
d="M52 714h193l138 -464h2v464h156v-714h-190l-147 492h-2v-492h-150v714zM461 898q-2 -22 -7.5 -46t-17 -44t-30 -33t-45.5 -13q-18 0 -35.5 4.5t-32.5 10.5t-27.5 10.5t-22.5 4.5q-14 0 -20.5 -11t-8.5 -19h-77q2 26 8.5 50.5t18.5 43.5t28.5 30.5t38.5 11.5q20 0 37 -4.5
t31 -10.5q15 -5 27.5 -10t23.5 -5q19 0 24 9.5t7 20.5h80z" />
    <glyph glyph-name="Ograve" unicode="&#xd2;" horiz-adv-x="574" 
d="M538 357q0 -74 -6 -141.5t-30.5 -118.5t-75 -81t-139.5 -30q-83 0 -132.5 26t-76 74.5t-34.5 117t-8 153.5t8 153.5t34.5 117t76 74.5t132.5 26q89 0 139.5 -30t75 -81t30.5 -118.5t6 -141.5zM210 357q0 -74 2.5 -123.5t10.5 -79.5t23 -43t40 -13t40.5 13t24 43t11 79.5
t2.5 123.5q0 73 -2.5 123t-11 80t-24 43t-40.5 13t-40 -13t-23 -43t-10.5 -80t-2.5 -123zM140 901h156l50 -142h-106z" />
    <glyph glyph-name="Oacute" unicode="&#xd3;" horiz-adv-x="574" 
d="M538 357q0 -74 -6 -141.5t-30.5 -118.5t-75 -81t-139.5 -30q-83 0 -132.5 26t-76 74.5t-34.5 117t-8 153.5t8 153.5t34.5 117t76 74.5t132.5 26q89 0 139.5 -30t75 -81t30.5 -118.5t6 -141.5zM210 357q0 -74 2.5 -123.5t10.5 -79.5t23 -43t40 -13t40.5 13t24 43t11 79.5
t2.5 123.5q0 73 -2.5 123t-11 80t-24 43t-40.5 13t-40 -13t-23 -43t-10.5 -80t-2.5 -123zM280 901h156l-100 -142h-106z" />
    <glyph glyph-name="Ocircumflex" unicode="&#xd4;" horiz-adv-x="574" 
d="M538 357q0 -74 -6 -141.5t-30.5 -118.5t-75 -81t-139.5 -30q-83 0 -132.5 26t-76 74.5t-34.5 117t-8 153.5t8 153.5t34.5 117t76 74.5t132.5 26q89 0 139.5 -30t75 -81t30.5 -118.5t6 -141.5zM210 357q0 -74 2.5 -123.5t10.5 -79.5t23 -43t40 -13t40.5 13t24 43t11 79.5
t2.5 123.5q0 73 -2.5 123t-11 80t-24 43t-40.5 13t-40 -13t-23 -43t-10.5 -80t-2.5 -123zM203 901h168l71 -142h-118l-37 81l-36 -81h-119z" />
    <glyph glyph-name="Otilde" unicode="&#xd5;" horiz-adv-x="574" 
d="M538 357q0 -74 -6 -141.5t-30.5 -118.5t-75 -81t-139.5 -30q-83 0 -132.5 26t-76 74.5t-34.5 117t-8 153.5t8 153.5t34.5 117t76 74.5t132.5 26q89 0 139.5 -30t75 -81t30.5 -118.5t6 -141.5zM210 357q0 -74 2.5 -123.5t10.5 -79.5t23 -43t40 -13t40.5 13t24 43t11 79.5
t2.5 123.5q0 73 -2.5 123t-11 80t-24 43t-40.5 13t-40 -13t-23 -43t-10.5 -80t-2.5 -123zM448 898q-2 -22 -7.5 -46t-17 -44t-30 -33t-45.5 -13q-18 0 -35.5 4.5t-32.5 10.5t-27.5 10.5t-22.5 4.5q-14 0 -20.5 -11t-8.5 -19h-77q2 26 8.5 50.5t18.5 43.5t28.5 30.5
t38.5 11.5q20 0 37 -4.5t31 -10.5q15 -5 27.5 -10t23.5 -5q19 0 24 9.5t7 20.5h80z" />
    <glyph glyph-name="Odieresis" unicode="&#xd6;" horiz-adv-x="574" 
d="M538 357q0 -74 -6 -141.5t-30.5 -118.5t-75 -81t-139.5 -30q-83 0 -132.5 26t-76 74.5t-34.5 117t-8 153.5t8 153.5t34.5 117t76 74.5t132.5 26q89 0 139.5 -30t75 -81t30.5 -118.5t6 -141.5zM210 357q0 -74 2.5 -123.5t10.5 -79.5t23 -43t40 -13t40.5 13t24 43t11 79.5
t2.5 123.5q0 73 -2.5 123t-11 80t-24 43t-40.5 13t-40 -13t-23 -43t-10.5 -80t-2.5 -123zM311 895h124v-130h-124v130zM135 895h124v-130h-124v130z" />
    <glyph glyph-name="multiply" unicode="&#xd7;" horiz-adv-x="600" 
d="M211 253l-154 153l90 90l153 -154l153 154l90 -90l-154 -153l154 -153l-90 -90l-153 154l-153 -154l-90 90z" />
    <glyph glyph-name="Oslash" unicode="&#xd8;" horiz-adv-x="574" 
d="M344 577q-9 21 -23 30t-35 9q-25 0 -40 -13t-23 -43t-10.5 -80t-2.5 -123v-46v-19t1 -17h2zM111 44q-24 23 -38.5 55t-22.5 72t-11 86.5t-3 99.5q0 85 8 153.5t34.5 117t76 74.5t132.5 26q70 0 114 -19l28 63l66 -29l-32 -73q26 -25 41 -58.5t22.5 -74t9.5 -86t2 -94.5
q0 -74 -6 -141.5t-30.5 -118.5t-75 -81t-139.5 -30q-73 0 -114 19l-28 -63l-66 29zM230 136q8 -20 22 -29t34 -9q25 0 40.5 13t24 43t11 79.5t2.5 123.5v45v20t-1 16h-2z" />
    <glyph glyph-name="Ugrave" unicode="&#xd9;" horiz-adv-x="556" 
d="M513 236q0 -53 -9.5 -98.5t-35 -79t-71.5 -53t-119 -19.5t-119 19.5t-71.5 53t-35 79t-9.5 98.5v478h168v-527q0 -42 16.5 -65.5t50.5 -23.5t50.5 23.5t16.5 65.5v527h168v-478zM142 901h156l50 -142h-106z" />
    <glyph glyph-name="Uacute" unicode="&#xda;" horiz-adv-x="556" 
d="M513 236q0 -53 -9.5 -98.5t-35 -79t-71.5 -53t-119 -19.5t-119 19.5t-71.5 53t-35 79t-9.5 98.5v478h168v-527q0 -42 16.5 -65.5t50.5 -23.5t50.5 23.5t16.5 65.5v527h168v-478zM275 900h156l-100 -142h-106z" />
    <glyph glyph-name="Ucircumflex" unicode="&#xdb;" horiz-adv-x="556" 
d="M513 236q0 -53 -9.5 -98.5t-35 -79t-71.5 -53t-119 -19.5t-119 19.5t-71.5 53t-35 79t-9.5 98.5v478h168v-527q0 -42 16.5 -65.5t50.5 -23.5t50.5 23.5t16.5 65.5v527h168v-478zM195 901h168l71 -142h-118l-37 81l-36 -81h-119z" />
    <glyph glyph-name="Udieresis" unicode="&#xdc;" horiz-adv-x="556" 
d="M513 236q0 -53 -9.5 -98.5t-35 -79t-71.5 -53t-119 -19.5t-119 19.5t-71.5 53t-35 79t-9.5 98.5v478h168v-527q0 -42 16.5 -65.5t50.5 -23.5t50.5 23.5t16.5 65.5v527h168v-478zM305 895h124v-130h-124v130zM129 895h124v-130h-124v130z" />
    <glyph glyph-name="Yacute" unicode="&#xdd;" horiz-adv-x="536" 
d="M184 281l-181 433h186l80 -265h2l82 265h180l-181 -433v-281h-168v281zM268 901h156l-100 -142h-106z" />
    <glyph glyph-name="Thorn" unicode="&#xde;" horiz-adv-x="556" 
d="M220 275h46q25 0 41 7.5t25.5 19.5t13 28.5t3.5 34.5q0 21 -4 38.5t-13.5 30.5t-26.5 20.5t-42 7.5h-43v-187zM52 714h168v-128h92q66 0 107.5 -21.5t64.5 -53.5t31 -70.5t8 -71.5q0 -48 -12 -88t-39.5 -69t-71 -45t-106.5 -16h-74v-151h-168v714z" />
    <glyph glyph-name="germandbls" unicode="&#xdf;" horiz-adv-x="537" 
d="M49 501q0 61 12 104.5t39 70.5t70.5 39.5t106.5 12.5q60 0 100 -13t64 -36.5t34.5 -56.5t10.5 -73q0 -57 -21.5 -93.5t-72.5 -50.5v-2q22 -2 42.5 -12t35.5 -31t24 -54t9 -81q0 -71 -13 -115.5t-38 -70.5t-61.5 -35.5t-82.5 -9.5q-19 0 -35 2t-24 4v108q5 -1 11 -1.5
t14 -0.5q38 0 52.5 29t14.5 95q0 65 -17.5 89t-57.5 24h-16v112h18q17 0 28 7t17 19t8.5 27t2.5 31q0 48 -16 65.5t-42 17.5q-30 0 -42.5 -22t-12.5 -64v-536h-162v501z" />
    <glyph glyph-name="agrave" unicode="&#xe0;" horiz-adv-x="500" 
d="M183 167q0 -32 12 -50.5t35 -18.5q26 0 45.5 16t19.5 58q0 34 0.5 56t0.5 39q-38 -20 -57.5 -25.5t-30.5 -14.5q-13 -10 -19 -23.5t-6 -36.5zM42 375q1 57 16.5 91t44.5 54t64.5 27.5t86.5 7.5q100 0 146 -36.5t46 -123.5v-278q0 -31 2.5 -65t16.5 -52h-156
q-5 14 -6.5 30t-2.5 32h-2q-17 -36 -51 -56t-76 -20q-69 0 -106.5 38.5t-37.5 126.5q0 48 18 84.5t48 53.5t70.5 26t74.5 18q18 5 29.5 9.5t18 11t8.5 16.5t2 25q0 25 -12 39.5t-39 14.5q-34 0 -46 -19.5t-13 -54.5h-144zM108 741h156l50 -142h-106z" />
    <glyph glyph-name="aacute" unicode="&#xe1;" horiz-adv-x="500" 
d="M183 167q0 -32 12 -50.5t35 -18.5q26 0 45.5 16t19.5 58q0 34 0.5 56t0.5 39q-38 -20 -57.5 -25.5t-30.5 -14.5q-13 -10 -19 -23.5t-6 -36.5zM42 375q1 57 16.5 91t44.5 54t64.5 27.5t86.5 7.5q100 0 146 -36.5t46 -123.5v-278q0 -31 2.5 -65t16.5 -52h-156
q-5 14 -6.5 30t-2.5 32h-2q-17 -36 -51 -56t-76 -20q-69 0 -106.5 38.5t-37.5 126.5q0 48 18 84.5t48 53.5t70.5 26t74.5 18q18 5 29.5 9.5t18 11t8.5 16.5t2 25q0 25 -12 39.5t-39 14.5q-34 0 -46 -19.5t-13 -54.5h-144zM246 741h156l-100 -142h-106z" />
    <glyph glyph-name="acircumflex" unicode="&#xe2;" horiz-adv-x="500" 
d="M183 167q0 -32 12 -50.5t35 -18.5q26 0 45.5 16t19.5 58q0 34 0.5 56t0.5 39q-38 -20 -57.5 -25.5t-30.5 -14.5q-13 -10 -19 -23.5t-6 -36.5zM42 375q1 57 16.5 91t44.5 54t64.5 27.5t86.5 7.5q100 0 146 -36.5t46 -123.5v-278q0 -31 2.5 -65t16.5 -52h-156
q-5 14 -6.5 30t-2.5 32h-2q-17 -36 -51 -56t-76 -20q-69 0 -106.5 38.5t-37.5 126.5q0 48 18 84.5t48 53.5t70.5 26t74.5 18q18 5 29.5 9.5t18 11t8.5 16.5t2 25q0 25 -12 39.5t-39 14.5q-34 0 -46 -19.5t-13 -54.5h-144zM166 741h168l71 -142h-118l-37 81l-36 -81h-119z
" />
    <glyph glyph-name="atilde" unicode="&#xe3;" horiz-adv-x="500" 
d="M183 167q0 -32 12 -50.5t35 -18.5q26 0 45.5 16t19.5 58q0 34 0.5 56t0.5 39q-38 -20 -57.5 -25.5t-30.5 -14.5q-13 -10 -19 -23.5t-6 -36.5zM42 375q1 57 16.5 91t44.5 54t64.5 27.5t86.5 7.5q100 0 146 -36.5t46 -123.5v-278q0 -31 2.5 -65t16.5 -52h-156
q-5 14 -6.5 30t-2.5 32h-2q-17 -36 -51 -56t-76 -20q-69 0 -106.5 38.5t-37.5 126.5q0 48 18 84.5t48 53.5t70.5 26t74.5 18q18 5 29.5 9.5t18 11t8.5 16.5t2 25q0 25 -12 39.5t-39 14.5q-34 0 -46 -19.5t-13 -54.5h-144zM413 738q-2 -22 -7.5 -46t-17 -44t-30 -33
t-45.5 -13q-18 0 -35.5 4.5t-32.5 10.5t-27.5 10.5t-22.5 4.5q-14 0 -20.5 -11t-8.5 -19h-77q2 26 8.5 50.5t18.5 43.5t28.5 30.5t38.5 11.5q20 0 37 -4.5t31 -10.5q15 -5 27.5 -10t23.5 -5q19 0 24 9.5t7 20.5h80z" />
    <glyph glyph-name="adieresis" unicode="&#xe4;" horiz-adv-x="500" 
d="M183 167q0 -32 12 -50.5t35 -18.5q26 0 45.5 16t19.5 58q0 34 0.5 56t0.5 39q-38 -20 -57.5 -25.5t-30.5 -14.5q-13 -10 -19 -23.5t-6 -36.5zM42 375q1 57 16.5 91t44.5 54t64.5 27.5t86.5 7.5q100 0 146 -36.5t46 -123.5v-278q0 -31 2.5 -65t16.5 -52h-156
q-5 14 -6.5 30t-2.5 32h-2q-17 -36 -51 -56t-76 -20q-69 0 -106.5 38.5t-37.5 126.5q0 48 18 84.5t48 53.5t70.5 26t74.5 18q18 5 29.5 9.5t18 11t8.5 16.5t2 25q0 25 -12 39.5t-39 14.5q-34 0 -46 -19.5t-13 -54.5h-144zM276 735h124v-130h-124v130zM100 735h124v-130h-124
v130z" />
    <glyph glyph-name="aring" unicode="&#xe5;" horiz-adv-x="500" 
d="M183 167q0 -32 12 -50.5t35 -18.5q26 0 45.5 16t19.5 58q0 34 0.5 56t0.5 39q-38 -20 -57.5 -25.5t-30.5 -14.5q-13 -10 -19 -23.5t-6 -36.5zM42 375q1 57 16.5 91t44.5 54t64.5 27.5t86.5 7.5q100 0 146 -36.5t46 -123.5v-278q0 -31 2.5 -65t16.5 -52h-156
q-5 14 -6.5 30t-2.5 32h-2q-17 -36 -51 -56t-76 -20q-69 0 -106.5 38.5t-37.5 126.5q0 48 18 84.5t48 53.5t70.5 26t74.5 18q18 5 29.5 9.5t18 11t8.5 16.5t2 25q0 25 -12 39.5t-39 14.5q-34 0 -46 -19.5t-13 -54.5h-144zM187 694q0 -25 17.5 -42.5t42.5 -17.5t42.5 17.5
t17.5 42.5t-17.5 42.5t-42.5 17.5t-42.5 -17.5t-17.5 -42.5zM126 694q0 26 9.5 47.5t26 37t38.5 24t47 8.5t47 -8.5t38.5 -24t26 -37t9.5 -47.5t-9.5 -47.5t-26 -36.5t-38.5 -23t-47 -8t-47 8t-38.5 23t-26 36.5t-9.5 47.5z" />
    <glyph glyph-name="ae" unicode="&#xe6;" horiz-adv-x="741" 
d="M563 338q0 57 -10.5 87t-44.5 30q-40 0 -51 -31t-11 -86h117zM183 167q0 -32 12 -50.5t35 -18.5q26 0 45.5 16t19.5 58q0 34 0.5 56t0.5 39q-38 -20 -57.5 -25.5t-30.5 -14.5q-13 -10 -19 -23.5t-6 -36.5zM42 375q1 57 16.5 91t44.5 54t63.5 27.5t76.5 7.5q38 0 63.5 -7
t42 -17t24.5 -20.5t11 -16.5q24 36 62 48.5t81 12.5q46 0 81.5 -14.5t60 -46.5t37.5 -83.5t13 -124.5v-42h-273v-33q0 -63 12 -94t47 -31q32 0 44 24t15 75h150q-2 -102 -55 -150.5t-155 -48.5q-77 0 -115 23.5t-54 65.5q-17 -45 -53 -67t-96 -22q-35 0 -64 8t-50 27t-33 51
t-12 79q0 48 18 84.5t48 53.5t70.5 26t74.5 18q18 5 29.5 9.5t18 11t8.5 16.5t2 25q0 25 -12 39.5t-39 14.5q-34 0 -46 -19.5t-13 -54.5h-144z" />
    <glyph glyph-name="ccedilla" unicode="&#xe7;" horiz-adv-x="481" 
d="M149 -153q14 -6 33 -10.5t40 -4.5q26 0 36 10t10 24q0 13 -13.5 22t-32.5 9q-11 0 -19 -2.5t-10 -3.5l-23 19l44 77q-53 4 -88 24q-33 19 -53 48t-30 65t-13 78t-3 88q0 57 9.5 105.5t34.5 84t67.5 55.5t108.5 20q64 0 105.5 -16t65.5 -44.5t33.5 -69t9.5 -88.5h-150
q0 60 -14.5 86t-46.5 26q-20 0 -32 -12.5t-18.5 -35.5t-8.5 -56t-2 -75q0 -46 2 -79.5t8.5 -55.5t18.5 -32.5t32 -10.5q18 0 29.5 6.5t18 21.5t9.5 39.5t4 60.5h150q-2 -126 -53 -180q-46 -47 -135 -53l-27 -47q9 4 26 4q48 0 69 -24t21 -53q0 -37 -29.5 -64t-90.5 -27
q-37 0 -65 5.5t-49 13.5z" />
    <glyph glyph-name="egrave" unicode="&#xe8;" horiz-adv-x="481" 
d="M306 338q0 57 -10.5 87t-44.5 30q-40 0 -51 -31t-11 -86h117zM189 244v-33q0 -63 12 -94t47 -31q32 0 44 24t15 75h150q-2 -102 -55 -150.5t-155 -48.5q-77 0 -120.5 25t-66 67t-28 97t-5.5 115q0 57 9.5 105.5t34.5 84t67.5 55.5t108.5 20q75 0 118 -22.5t64.5 -64
t27 -98.5t5.5 -126h-273zM101 741h156l50 -142h-106z" />
    <glyph glyph-name="eacute" unicode="&#xe9;" horiz-adv-x="481" 
d="M306 338q0 57 -10.5 87t-44.5 30q-40 0 -51 -31t-11 -86h117zM189 244v-33q0 -63 12 -94t47 -31q32 0 44 24t15 75h150q-2 -102 -55 -150.5t-155 -48.5q-77 0 -120.5 25t-66 67t-28 97t-5.5 115q0 57 9.5 105.5t34.5 84t67.5 55.5t108.5 20q75 0 118 -22.5t64.5 -64
t27 -98.5t5.5 -126h-273zM245 741h156l-100 -142h-106z" />
    <glyph glyph-name="ecircumflex" unicode="&#xea;" horiz-adv-x="481" 
d="M306 338q0 57 -10.5 87t-44.5 30q-40 0 -51 -31t-11 -86h117zM189 244v-33q0 -63 12 -94t47 -31q32 0 44 24t15 75h150q-2 -102 -55 -150.5t-155 -48.5q-77 0 -120.5 25t-66 67t-28 97t-5.5 115q0 57 9.5 105.5t34.5 84t67.5 55.5t108.5 20q75 0 118 -22.5t64.5 -64
t27 -98.5t5.5 -126h-273zM166 741h168l71 -142h-118l-37 81l-36 -81h-119z" />
    <glyph glyph-name="edieresis" unicode="&#xeb;" horiz-adv-x="481" 
d="M306 338q0 57 -10.5 87t-44.5 30q-40 0 -51 -31t-11 -86h117zM189 244v-33q0 -63 12 -94t47 -31q32 0 44 24t15 75h150q-2 -102 -55 -150.5t-155 -48.5q-77 0 -120.5 25t-66 67t-28 97t-5.5 115q0 57 9.5 105.5t34.5 84t67.5 55.5t108.5 20q75 0 118 -22.5t64.5 -64
t27 -98.5t5.5 -126h-273zM275 735h124v-130h-124v130zM99 735h124v-130h-124v130z" />
    <glyph glyph-name="igrave" unicode="&#xec;" 
d="M49 541h162v-541h-162v541zM4 741h156l50 -142h-106z" />
    <glyph glyph-name="iacute" unicode="&#xed;" 
d="M49 541h162v-541h-162v541zM101 741h156l-100 -142h-106z" />
    <glyph glyph-name="icircumflex" unicode="&#xee;" 
d="M49 541h162v-541h-162v541zM48 741h168l71 -142h-118l-37 81l-36 -81h-119z" />
    <glyph glyph-name="idieresis" unicode="&#xef;" 
d="M49 541h162v-541h-162v541zM156 735h124v-130h-124v130zM-20 735h124v-130h-124v130z" />
    <glyph glyph-name="eth" unicode="&#xf0;" horiz-adv-x="500" 
d="M51 616l81 49q-14 14 -29 27.5t-29 25.5l105 78q18 -17 35 -32.5t33 -30.5l76 46l54 -47l-81 -47q43 -44 76 -87.5t55.5 -93.5t34 -110t11.5 -137q0 -57 -8.5 -106.5t-33 -86t-68 -57.5t-113.5 -21q-74 0 -118.5 20.5t-67.5 56.5t-30 85t-7 107q0 46 6 94t24.5 87.5
t52.5 64.5t90 25q21 0 38.5 -5t37.5 -17l2 2q-20 27 -45 55t-52 55l-80 -48zM311 256q0 46 -2.5 77t-9 50.5t-18 28t-30.5 8.5q-36 0 -49 -37t-13 -127t13 -127t49 -37q19 0 30.5 8.5t18 28t9 50.5t2.5 77z" />
    <glyph glyph-name="ntilde" unicode="&#xf1;" horiz-adv-x="519" 
d="M45 541h156v-64h2q17 36 51 57t79 21q69 0 105 -36t36 -114v-405h-162v369q0 29 -12 45.5t-35 16.5t-40.5 -18.5t-17.5 -58.5v-354h-162v541zM417 738q-2 -22 -7.5 -46t-17 -44t-30 -33t-45.5 -13q-18 0 -35.5 4.5t-32.5 10.5t-27.5 10.5t-22.5 4.5q-14 0 -20.5 -11
t-8.5 -19h-77q2 26 8.5 50.5t18.5 43.5t28.5 30.5t38.5 11.5q20 0 37 -4.5t31 -10.5q15 -5 27.5 -10t23.5 -5q19 0 24 9.5t7 20.5h80z" />
    <glyph glyph-name="ograve" unicode="&#xf2;" horiz-adv-x="500" 
d="M250 -14q-74 0 -118.5 21.5t-67.5 59.5t-30 89.5t-7 112.5t8.5 113t33 90.5t68 60.5t113.5 22q74 0 118 -21.5t67.5 -59.5t30.5 -89.5t7 -112.5t-8.5 -113t-33 -90.5t-68 -60.5t-113.5 -22zM311 270q0 50 -2.5 84.5t-9 55.5t-18 30t-30.5 9q-36 0 -49 -40t-13 -138
q0 -99 13 -139t49 -40q19 0 30.5 9t18 30t9 55t2.5 84zM109 741h156l50 -142h-106z" />
    <glyph glyph-name="oacute" unicode="&#xf3;" horiz-adv-x="500" 
d="M250 -14q-74 0 -118.5 21.5t-67.5 59.5t-30 89.5t-7 112.5t8.5 113t33 90.5t68 60.5t113.5 22q74 0 118 -21.5t67.5 -59.5t30.5 -89.5t7 -112.5t-8.5 -113t-33 -90.5t-68 -60.5t-113.5 -22zM311 270q0 50 -2.5 84.5t-9 55.5t-18 30t-30.5 9q-36 0 -49 -40t-13 -138
q0 -99 13 -139t49 -40q19 0 30.5 9t18 30t9 55t2.5 84zM245 741h156l-100 -142h-106z" />
    <glyph glyph-name="ocircumflex" unicode="&#xf4;" horiz-adv-x="500" 
d="M250 -14q-74 0 -118.5 21.5t-67.5 59.5t-30 89.5t-7 112.5t8.5 113t33 90.5t68 60.5t113.5 22q74 0 118 -21.5t67.5 -59.5t30.5 -89.5t7 -112.5t-8.5 -113t-33 -90.5t-68 -60.5t-113.5 -22zM311 270q0 50 -2.5 84.5t-9 55.5t-18 30t-30.5 9q-36 0 -49 -40t-13 -138
q0 -99 13 -139t49 -40q19 0 30.5 9t18 30t9 55t2.5 84zM166 741h168l71 -142h-118l-37 81l-36 -81h-119z" />
    <glyph glyph-name="otilde" unicode="&#xf5;" horiz-adv-x="500" 
d="M250 -14q-74 0 -118.5 21.5t-67.5 59.5t-30 89.5t-7 112.5t8.5 113t33 90.5t68 60.5t113.5 22q74 0 118 -21.5t67.5 -59.5t30.5 -89.5t7 -112.5t-8.5 -113t-33 -90.5t-68 -60.5t-113.5 -22zM311 270q0 50 -2.5 84.5t-9 55.5t-18 30t-30.5 9q-36 0 -49 -40t-13 -138
q0 -99 13 -139t49 -40q19 0 30.5 9t18 30t9 55t2.5 84zM413 738q-2 -22 -7.5 -46t-17 -44t-30 -33t-45.5 -13q-18 0 -35.5 4.5t-32.5 10.5t-27.5 10.5t-22.5 4.5q-14 0 -20.5 -11t-8.5 -19h-77q2 26 8.5 50.5t18.5 43.5t28.5 30.5t38.5 11.5q20 0 37 -4.5t31 -10.5
q15 -5 27.5 -10t23.5 -5q19 0 24 9.5t7 20.5h80z" />
    <glyph glyph-name="odieresis" unicode="&#xf6;" horiz-adv-x="500" 
d="M250 -14q-74 0 -118.5 21.5t-67.5 59.5t-30 89.5t-7 112.5t8.5 113t33 90.5t68 60.5t113.5 22q74 0 118 -21.5t67.5 -59.5t30.5 -89.5t7 -112.5t-8.5 -113t-33 -90.5t-68 -60.5t-113.5 -22zM311 270q0 50 -2.5 84.5t-9 55.5t-18 30t-30.5 9q-36 0 -49 -40t-13 -138
q0 -99 13 -139t49 -40q19 0 30.5 9t18 30t9 55t2.5 84zM277 735h124v-130h-124v130zM101 735h124v-130h-124v130z" />
    <glyph glyph-name="divide" unicode="&#xf7;" horiz-adv-x="600" 
d="M203 465q0 42 27.5 69.5t69.5 27.5t69.5 -27.5t27.5 -69.5t-27.5 -69.5t-69.5 -27.5t-69.5 27.5t-27.5 69.5zM203 41q0 42 27.5 69.5t69.5 27.5t69.5 -27.5t27.5 -69.5t-27.5 -69.5t-69.5 -27.5t-69.5 27.5t-27.5 69.5zM47 318h506v-130h-506v130z" />
    <glyph glyph-name="oslash" unicode="&#xf8;" horiz-adv-x="500" 
d="M295 419q-12 30 -45 30q-20 0 -32 -12.5t-18.5 -35.5t-8.5 -56t-2 -74v-38h2zM205 122q12 -30 45 -30q20 0 32 12.5t18.5 35.5t8.5 56t2 74v37h-2zM83 43q-35 37 -45.5 95t-10.5 133q0 46 5 96.5t27 92t66.5 68.5t124.5 27q72 0 111 -19l39 69l58 -35l-40 -72
q35 -38 45 -95.5t10 -132.5q0 -47 -5 -97t-27 -91.5t-67 -68.5t-124 -27q-72 0 -111 19l-39 -69l-58 35z" />
    <glyph glyph-name="ugrave" unicode="&#xf9;" horiz-adv-x="519" 
d="M474 0h-156v64h-2q-17 -36 -51 -57t-79 -21q-69 0 -105 36t-36 114v405h162v-369q0 -29 12 -45.5t35 -16.5t40.5 18.5t17.5 58.5v354h162v-541zM126 741h156l50 -142h-106z" />
    <glyph glyph-name="uacute" unicode="&#xfa;" horiz-adv-x="519" 
d="M474 0h-156v64h-2q-17 -36 -51 -57t-79 -21q-69 0 -105 36t-36 114v405h162v-369q0 -29 12 -45.5t35 -16.5t40.5 18.5t17.5 58.5v354h162v-541zM254 741h156l-100 -142h-106z" />
    <glyph glyph-name="ucircumflex" unicode="&#xfb;" horiz-adv-x="519" 
d="M474 0h-156v64h-2q-17 -36 -51 -57t-79 -21q-69 0 -105 36t-36 114v405h162v-369q0 -29 12 -45.5t35 -16.5t40.5 18.5t17.5 58.5v354h162v-541zM175 741h168l71 -142h-118l-37 81l-36 -81h-119z" />
    <glyph glyph-name="udieresis" unicode="&#xfc;" horiz-adv-x="519" 
d="M474 0h-156v64h-2q-17 -36 -51 -57t-79 -21q-69 0 -105 36t-36 114v405h162v-369q0 -29 12 -45.5t35 -16.5t40.5 18.5t17.5 58.5v354h162v-541zM285 735h124v-130h-124v130zM109 735h124v-130h-124v130z" />
    <glyph glyph-name="yacute" unicode="&#xfd;" horiz-adv-x="481" 
d="M10 541h168l66 -379h2l63 379h162l-145 -545q-14 -52 -29.5 -85.5t-38 -52.5t-54.5 -26.5t-79 -7.5h-37q-8 0 -16.5 0.5t-16.5 1.5v114q10 -2 20 -3t20 -1q23 0 42 12.5t26 47.5zM239 741h156l-100 -142h-106z" />
    <glyph glyph-name="thorn" unicode="&#xfe;" horiz-adv-x="519" 
d="M204 274q0 -36 1.5 -67t7.5 -54t17.5 -36t32.5 -13q22 0 34.5 11.5t18.5 33t7.5 51.5t1.5 67q0 33 -1.5 63.5t-7.5 54t-19 38t-35 14.5q-36 0 -47 -42t-11 -121zM45 714h162v-239h2q4 14 12.5 28t22.5 25.5t33 19t43 7.5q40 0 71.5 -15.5t52.5 -49t32 -86.5t11 -129
q0 -63 -6 -116t-23 -91.5t-48 -60t-80 -21.5q-33 0 -67 14.5t-54 58.5h-2v-235h-162v890z" />
    <glyph glyph-name="ydieresis" unicode="&#xff;" horiz-adv-x="481" 
d="M10 541h168l66 -379h2l63 379h162l-145 -545q-14 -52 -29.5 -85.5t-38 -52.5t-54.5 -26.5t-79 -7.5h-37q-8 0 -16.5 0.5t-16.5 1.5v114q10 -2 20 -3t20 -1q23 0 42 12.5t26 47.5zM271 735h124v-130h-124v130zM95 735h124v-130h-124v130z" />
    <glyph glyph-name=".null" horiz-adv-x="500" 
 />
    <glyph glyph-name="Amacron" unicode="&#x100;" horiz-adv-x="574" 
d="M184 714h210l178 -714h-174l-26 136h-171l-25 -136h-174zM286 584h-2l-59 -318h122zM131 874h310v-88h-310v88z" />
    <glyph glyph-name="amacron" unicode="&#x101;" horiz-adv-x="500" 
d="M183 167q0 -32 12 -50.5t35 -18.5q26 0 45.5 16t19.5 58q0 34 0.5 56t0.5 39q-38 -20 -57.5 -25.5t-30.5 -14.5q-13 -10 -19 -23.5t-6 -36.5zM42 375q1 57 16.5 91t44.5 54t64.5 27.5t86.5 7.5q100 0 146 -36.5t46 -123.5v-278q0 -31 2.5 -65t16.5 -52h-156
q-5 14 -6.5 30t-2.5 32h-2q-17 -36 -51 -56t-76 -20q-69 0 -106.5 38.5t-37.5 126.5q0 48 18 84.5t48 53.5t70.5 26t74.5 18q18 5 29.5 9.5t18 11t8.5 16.5t2 25q0 25 -12 39.5t-39 14.5q-34 0 -46 -19.5t-13 -54.5h-144zM96 714h310v-88h-310v88z" />
    <glyph glyph-name="Abreve" unicode="&#x102;" horiz-adv-x="574" 
d="M184 714h210l178 -714h-174l-26 136h-171l-25 -136h-174zM286 584h-2l-59 -318h122zM285 837q25 0 47 17.5t26 46.5h72q0 -30 -8.5 -55.5t-26.5 -45t-45.5 -30.5t-64.5 -11q-38 0 -65 11t-45 30.5t-26.5 45t-8.5 55.5h72q4 -29 26 -46.5t47 -17.5z" />
    <glyph glyph-name="abreve" unicode="&#x103;" horiz-adv-x="500" 
d="M183 167q0 -32 12 -50.5t35 -18.5q26 0 45.5 16t19.5 58q0 34 0.5 56t0.5 39q-38 -20 -57.5 -25.5t-30.5 -14.5q-13 -10 -19 -23.5t-6 -36.5zM42 375q1 57 16.5 91t44.5 54t64.5 27.5t86.5 7.5q100 0 146 -36.5t46 -123.5v-278q0 -31 2.5 -65t16.5 -52h-156
q-5 14 -6.5 30t-2.5 32h-2q-17 -36 -51 -56t-76 -20q-69 0 -106.5 38.5t-37.5 126.5q0 48 18 84.5t48 53.5t70.5 26t74.5 18q18 5 29.5 9.5t18 11t8.5 16.5t2 25q0 25 -12 39.5t-39 14.5q-34 0 -46 -19.5t-13 -54.5h-144zM247 677q25 0 47 17.5t26 46.5h72q0 -30 -8.5 -55.5
t-26.5 -45t-45.5 -30.5t-64.5 -11q-38 0 -65 11t-45 30.5t-26.5 45t-8.5 55.5h72q4 -29 26 -46.5t47 -17.5z" />
    <glyph glyph-name="Aogonek" unicode="&#x104;" horiz-adv-x="574" 
d="M509 -197q-22 -12 -53 -19.5t-63 -7.5q-51 0 -79 23.5t-28 65.5q0 39 32 74t80 61l-26 136h-171l-25 -136h-174l182 714h210l178 -714h-100q-92 -71 -92 -121q0 -23 13.5 -35t36.5 -12q30 0 56 16zM286 584h-2l-59 -318h122z" />
    <glyph glyph-name="aogonek" unicode="&#x105;" horiz-adv-x="500" 
d="M42 375q1 57 16.5 91t44.5 54t64.5 27.5t86.5 7.5q100 0 146 -36.5t46 -123.5v-278q0 -31 2.5 -65t16.5 -52h-90q-77 -71 -77 -119q0 -26 12.5 -37.5t32.5 -11.5q30 0 55 16l20 -45q-19 -12 -49 -19.5t-59 -7.5q-46 0 -71 23.5t-25 65.5q0 39 27.5 72.5t67.5 62.5
q-5 14 -6.5 30t-2.5 32h-2q-17 -36 -51 -56t-76 -20q-69 0 -106.5 38.5t-37.5 126.5q0 48 18 84.5t48 53.5t70.5 26t74.5 18q18 5 29.5 9.5t18 11t8.5 16.5t2 25q0 25 -12 39.5t-39 14.5q-34 0 -46 -19.5t-13 -54.5h-144zM183 167q0 -32 12 -50.5t35 -18.5q26 0 45.5 16
t19.5 58q0 34 0.5 56t0.5 39q-38 -20 -57.5 -25.5t-30.5 -14.5q-13 -10 -19 -23.5t-6 -36.5z" />
    <glyph glyph-name="Cacute" unicode="&#x106;" horiz-adv-x="537" 
d="M351 466q0 78 -13 114t-55 36q-25 0 -39.5 -13t-22 -42.5t-9.5 -77.5t-2 -118q0 -80 2 -131.5t10 -81.5t23.5 -42t41.5 -12q23 0 36.5 13t21 36.5t10 57t2.5 75.5h162v-25q0 -58 -10 -107t-37.5 -85t-76.5 -56.5t-127 -20.5q-81 0 -127 28.5t-69.5 79t-29.5 119t-6 149.5
q0 69 5.5 134.5t29.5 117t74 83t139 31.5q111 0 170 -53t59 -179v-30h-162zM278 901h156l-100 -142h-106z" />
    <glyph glyph-name="cacute" unicode="&#x107;" horiz-adv-x="481" 
d="M311 337q0 60 -14.5 86t-46.5 26q-20 0 -32 -12.5t-18.5 -35.5t-8.5 -56t-2 -75q0 -46 2 -79.5t8.5 -55.5t18.5 -32.5t32 -10.5q18 0 29.5 6.5t18 21.5t9.5 39.5t4 60.5h150q-1 -125 -52.5 -179.5t-161.5 -54.5q-77 0 -120.5 25t-66 67t-28 97t-5.5 115q0 57 9.5 105.5
t34.5 84t67.5 55.5t108.5 20q64 0 105.5 -16t65.5 -44.5t33.5 -69t9.5 -88.5h-150zM243 741h156l-100 -142h-106z" />
    <glyph glyph-name="Ccircumflex" unicode="&#x108;" horiz-adv-x="537" 
d="M351 466q0 78 -13 114t-55 36q-25 0 -39.5 -13t-22 -42.5t-9.5 -77.5t-2 -118q0 -80 2 -131.5t10 -81.5t23.5 -42t41.5 -12q23 0 36.5 13t21 36.5t10 57t2.5 75.5h162v-25q0 -58 -10 -107t-37.5 -85t-76.5 -56.5t-127 -20.5q-81 0 -127 28.5t-69.5 79t-29.5 119t-6 149.5
q0 69 5.5 134.5t29.5 117t74 83t139 31.5q111 0 170 -53t59 -179v-30h-162zM199 901h168l71 -142h-118l-37 81l-36 -81h-119z" />
    <glyph glyph-name="ccircumflex" unicode="&#x109;" horiz-adv-x="481" 
d="M311 337q0 60 -14.5 86t-46.5 26q-20 0 -32 -12.5t-18.5 -35.5t-8.5 -56t-2 -75q0 -46 2 -79.5t8.5 -55.5t18.5 -32.5t32 -10.5q18 0 29.5 6.5t18 21.5t9.5 39.5t4 60.5h150q-1 -125 -52.5 -179.5t-161.5 -54.5q-77 0 -120.5 25t-66 67t-28 97t-5.5 115q0 57 9.5 105.5
t34.5 84t67.5 55.5t108.5 20q64 0 105.5 -16t65.5 -44.5t33.5 -69t9.5 -88.5h-150zM166 741h168l71 -142h-118l-37 81l-36 -81h-119z" />
    <glyph glyph-name="Cdotaccent" unicode="&#x10a;" horiz-adv-x="537" 
d="M351 466q0 78 -13 114t-55 36q-25 0 -39.5 -13t-22 -42.5t-9.5 -77.5t-2 -118q0 -80 2 -131.5t10 -81.5t23.5 -42t41.5 -12q23 0 36.5 13t21 36.5t10 57t2.5 75.5h162v-25q0 -58 -10 -107t-37.5 -85t-76.5 -56.5t-127 -20.5q-81 0 -127 28.5t-69.5 79t-29.5 119t-6 149.5
q0 69 5.5 134.5t29.5 117t74 83t139 31.5q111 0 170 -53t59 -179v-30h-162zM343 895v-130h-124v130h124z" />
    <glyph glyph-name="cdotaccent" unicode="&#x10b;" horiz-adv-x="481" 
d="M311 337q0 60 -14.5 86t-46.5 26q-20 0 -32 -12.5t-18.5 -35.5t-8.5 -56t-2 -75q0 -46 2 -79.5t8.5 -55.5t18.5 -32.5t32 -10.5q18 0 29.5 6.5t18 21.5t9.5 39.5t4 60.5h150q-1 -125 -52.5 -179.5t-161.5 -54.5q-77 0 -120.5 25t-66 67t-28 97t-5.5 115q0 57 9.5 105.5
t34.5 84t67.5 55.5t108.5 20q64 0 105.5 -16t65.5 -44.5t33.5 -69t9.5 -88.5h-150zM313 735v-130h-124v130h124z" />
    <glyph glyph-name="Ccaron" unicode="&#x10c;" horiz-adv-x="537" 
d="M351 466q0 78 -13 114t-55 36q-25 0 -39.5 -13t-22 -42.5t-9.5 -77.5t-2 -118q0 -80 2 -131.5t10 -81.5t23.5 -42t41.5 -12q23 0 36.5 13t21 36.5t10 57t2.5 75.5h162v-25q0 -58 -10 -107t-37.5 -85t-76.5 -56.5t-127 -20.5q-81 0 -127 28.5t-69.5 79t-29.5 119t-6 149.5
q0 69 5.5 134.5t29.5 117t74 83t139 31.5q111 0 170 -53t59 -179v-30h-162zM130 901h119l36 -81l37 81h118l-71 -142h-168z" />
    <glyph glyph-name="ccaron" unicode="&#x10d;" horiz-adv-x="481" 
d="M311 337q0 60 -14.5 86t-46.5 26q-20 0 -32 -12.5t-18.5 -35.5t-8.5 -56t-2 -75q0 -46 2 -79.5t8.5 -55.5t18.5 -32.5t32 -10.5q18 0 29.5 6.5t18 21.5t9.5 39.5t4 60.5h150q-1 -125 -52.5 -179.5t-161.5 -54.5q-77 0 -120.5 25t-66 67t-28 97t-5.5 115q0 57 9.5 105.5
t34.5 84t67.5 55.5t108.5 20q64 0 105.5 -16t65.5 -44.5t33.5 -69t9.5 -88.5h-150zM97 741h119l36 -81l37 81h118l-71 -142h-168z" />
    <glyph glyph-name="Dcaron" unicode="&#x10e;" horiz-adv-x="574" 
d="M220 124h45q29 0 49 8t32.5 34t18 74.5t5.5 128.5q0 65 -3.5 108t-14.5 68t-31.5 35t-53.5 10h-47v-466zM52 714h249q62 0 107 -17.5t74 -56.5t42.5 -103t13.5 -157q0 -97 -8.5 -168.5t-35.5 -118.5t-77 -70t-133 -23h-232v714zM105 901h119l36 -81l37 81h118l-71 -142
h-168z" />
    <glyph glyph-name="dcaron" unicode="&#x10f;" horiz-adv-x="623" 
d="M315 267q0 36 -1.5 67t-7.5 54t-17.5 36t-32.5 13q-22 0 -34.5 -11.5t-18.5 -33t-7.5 -51.5t-1.5 -67q0 -33 1.5 -63.5t7.5 -54t18.5 -38t35.5 -14.5q36 0 47 42t11 121zM318 66h-2q-5 -14 -13.5 -28t-22.5 -25.5t-34 -19t-47 -7.5q-41 0 -72 15.5t-52 49t-32 86.5
t-11 129q0 63 6 116t23 91.5t47.5 60t80.5 21.5q17 0 34 -3.5t33 -11.5t30 -22.5t24 -35.5h2v232h162v-714h-156v66zM536 714h131l-59 -142h-98z" />
    <glyph glyph-name="Dcroat" unicode="&#x110;" horiz-adv-x="574" 
d="M52 317h-52v112h52v285h245q62 0 107 -17.5t74 -56.5t43.5 -103t16.5 -157q-2 -97 -11.5 -168.5t-36.5 -118.5t-77 -70t-133 -23h-228v317zM220 124h45q29 0 49 8t32.5 34t18 74.5t5.5 128.5q0 65 -3.5 108t-14.5 68t-31.5 35t-53.5 10h-47v-161h62v-112h-62v-193z" />
    <glyph glyph-name="dcroat" unicode="&#x111;" horiz-adv-x="558" 
d="M318 66h-2q-5 -14 -13.5 -28t-22.5 -25.5t-34 -19t-47 -7.5q-41 0 -72 15.5t-52 49t-32 86.5t-11 129q0 63 6 116t23 91.5t47.5 60t80.5 21.5q17 0 34 -3.5t33 -11.5t30 -22.5t24 -35.5h2v92h-66v68h66v72h162v-72h90v-68h-90v-574h-156v66zM315 267q0 36 -1.5 67
t-7.5 54t-17.5 36t-32.5 13q-22 0 -34.5 -11.5t-18.5 -33t-7.5 -51.5t-1.5 -67q0 -33 1.5 -63.5t7.5 -54t18.5 -38t35.5 -14.5q36 0 47 42t11 121z" />
    <glyph glyph-name="Emacron" unicode="&#x112;" horiz-adv-x="500" 
d="M52 714h413v-136h-245v-143h230v-136h-230v-163h256v-136h-424v714zM105 874h310v-88h-310v88z" />
    <glyph glyph-name="emacron" unicode="&#x113;" horiz-adv-x="481" 
d="M306 338q0 57 -10.5 87t-44.5 30q-40 0 -51 -31t-11 -86h117zM189 244v-33q0 -63 12 -94t47 -31q32 0 44 24t15 75h150q-2 -102 -55 -150.5t-155 -48.5q-77 0 -120.5 25t-66 67t-28 97t-5.5 115q0 57 9.5 105.5t34.5 84t67.5 55.5t108.5 20q75 0 118 -22.5t64.5 -64
t27 -98.5t5.5 -126h-273zM95 714h310v-88h-310v88z" />
    <glyph glyph-name="Ebreve" unicode="&#x114;" horiz-adv-x="500" 
d="M52 714h413v-136h-245v-143h230v-136h-230v-163h256v-136h-424v714zM256 837q25 0 47 17.5t26 46.5h72q0 -30 -8.5 -55.5t-26.5 -45t-45.5 -30.5t-64.5 -11q-38 0 -65 11t-45 30.5t-26.5 45t-8.5 55.5h72q4 -29 26 -46.5t47 -17.5z" />
    <glyph glyph-name="ebreve" unicode="&#x115;" horiz-adv-x="481" 
d="M306 338q0 57 -10.5 87t-44.5 30q-40 0 -51 -31t-11 -86h117zM189 244v-33q0 -63 12 -94t47 -31q32 0 44 24t15 75h150q-2 -102 -55 -150.5t-155 -48.5q-77 0 -120.5 25t-66 67t-28 97t-5.5 115q0 57 9.5 105.5t34.5 84t67.5 55.5t108.5 20q75 0 118 -22.5t64.5 -64
t27 -98.5t5.5 -126h-273zM252 677q25 0 47 17.5t26 46.5h72q0 -30 -8.5 -55.5t-26.5 -45t-45.5 -30.5t-64.5 -11q-38 0 -65 11t-45 30.5t-26.5 45t-8.5 55.5h72q4 -29 26 -46.5t47 -17.5z" />
    <glyph glyph-name="Edotaccent" unicode="&#x116;" horiz-adv-x="500" 
d="M52 714h413v-136h-245v-143h230v-136h-230v-163h256v-136h-424v714zM320 895v-130h-124v130h124z" />
    <glyph glyph-name="edotaccent" unicode="&#x117;" horiz-adv-x="481" 
d="M306 338q0 57 -10.5 87t-44.5 30q-40 0 -51 -31t-11 -86h117zM189 244v-33q0 -63 12 -94t47 -31q32 0 44 24t15 75h150q-2 -102 -55 -150.5t-155 -48.5q-77 0 -120.5 25t-66 67t-28 97t-5.5 115q0 57 9.5 105.5t34.5 84t67.5 55.5t108.5 20q75 0 118 -22.5t64.5 -64
t27 -98.5t5.5 -126h-273zM311 735v-130h-124v130h124z" />
    <glyph glyph-name="Eogonek" unicode="&#x118;" horiz-adv-x="500" 
d="M475 -197q-22 -12 -53 -19.5t-63 -7.5q-51 0 -79 23.5t-28 65.5q0 39 32 74t80 61h-312v714h413v-136h-245v-143h230v-136h-230v-163h256v-136h-38q-92 -71 -92 -121q0 -23 13.5 -35t36.5 -12q30 0 56 16z" />
    <glyph glyph-name="eogonek" unicode="&#x119;" horiz-adv-x="481" 
d="M354 -197q-22 -12 -53 -19.5t-63 -7.5q-51 0 -79 23.5t-28 65.5q0 39 32 74q24 27 57 48q-58 4 -94 24q-33 19 -53 48t-30 65t-13 78t-3 88q0 57 9.5 105.5t34.5 84t67.5 55.5t108.5 20q75 0 118 -22.5t64.5 -64t27 -98.5t5.5 -126h-273v-33q0 -63 12 -94t47 -31
q32 0 44 24t15 75h150q-1 -100 -56 -150q-36 -33 -96 -44q-80 -65 -80 -112q0 -23 13.5 -35t36.5 -12q30 0 56 16zM306 338q0 57 -10.5 87t-44.5 30q-40 0 -51 -31t-11 -86h117z" />
    <glyph glyph-name="Ecaron" unicode="&#x11a;" horiz-adv-x="500" 
d="M52 714h413v-136h-245v-143h230v-136h-230v-163h256v-136h-424v714zM107 901h119l36 -81l37 81h118l-71 -142h-168z" />
    <glyph glyph-name="ecaron" unicode="&#x11b;" horiz-adv-x="481" 
d="M306 338q0 57 -10.5 87t-44.5 30q-40 0 -51 -31t-11 -86h117zM189 244v-33q0 -63 12 -94t47 -31q32 0 44 24t15 75h150q-2 -102 -55 -150.5t-155 -48.5q-77 0 -120.5 25t-66 67t-28 97t-5.5 115q0 57 9.5 105.5t34.5 84t67.5 55.5t108.5 20q75 0 118 -22.5t64.5 -64
t27 -98.5t5.5 -126h-273zM94 741h119l36 -81l37 81h118l-71 -142h-168z" />
    <glyph glyph-name="Gcircumflex" unicode="&#x11c;" horiz-adv-x="556" 
d="M354 497q0 17 -2 38t-8.5 39t-20 30t-36.5 12q-26 0 -41 -14t-23 -45t-10.5 -80.5t-2.5 -120.5q0 -73 2.5 -122.5t11 -79.5t23.5 -43t40 -13q43 0 60 37.5t17 112.5v23h-79v112h235v-383h-115l-4 68h-2q-10 -24 -26.5 -40t-36.5 -25t-43.5 -13t-47.5 -4q-67 0 -108 24.5
t-63.5 70t-30 111.5t-7.5 150q0 88 6 159t31.5 121.5t76.5 78t140 27.5q54 0 92 -11.5t63 -30.5t39.5 -43t21.5 -50t8.5 -51t1.5 -45h-162zM205 901h168l71 -142h-118l-37 81l-36 -81h-119z" />
    <glyph glyph-name="gcircumflex" unicode="&#x11d;" horiz-adv-x="519" 
d="M198 280q0 -42 3 -71t10 -46t18 -24.5t28 -7.5q16 0 28 7t19 24.5t10.5 47t3.5 75.5q0 75 -12 110.5t-47 35.5q-20 0 -32 -11t-18.5 -31t-8.5 -48t-2 -61zM324 541h150v-522q0 -46 -11 -83.5t-37.5 -64t-69.5 -41t-107 -14.5q-59 0 -98 12t-62.5 32.5t-33 48t-9.5 57.5
h150q4 -22 17 -33q17 -11 40 -11q20 0 32.5 7t20 23.5t10 42.5t2.5 65v33h-2q-17 -47 -51.5 -63.5t-76.5 -16.5q-44 0 -73 20.5t-46.5 56t-25 84t-7.5 104.5q0 48 5 97.5t21.5 89t47.5 65t84 25.5q55 0 84.5 -25t43.5 -62h2v73zM192 741h168l71 -142h-118l-37 81l-36 -81
h-119z" />
    <glyph glyph-name="Gbreve" unicode="&#x11e;" horiz-adv-x="556" 
d="M354 497q0 17 -2 38t-8.5 39t-20 30t-36.5 12q-26 0 -41 -14t-23 -45t-10.5 -80.5t-2.5 -120.5q0 -73 2.5 -122.5t11 -79.5t23.5 -43t40 -13q43 0 60 37.5t17 112.5v23h-79v112h235v-383h-115l-4 68h-2q-10 -24 -26.5 -40t-36.5 -25t-43.5 -13t-47.5 -4q-67 0 -108 24.5
t-63.5 70t-30 111.5t-7.5 150q0 88 6 159t31.5 121.5t76.5 78t140 27.5q54 0 92 -11.5t63 -30.5t39.5 -43t21.5 -50t8.5 -51t1.5 -45h-162zM283 837q25 0 47 17.5t26 46.5h72q0 -30 -8.5 -55.5t-26.5 -45t-45.5 -30.5t-64.5 -11q-38 0 -65 11t-45 30.5t-26.5 45t-8.5 55.5
h72q4 -29 26 -46.5t47 -17.5z" />
    <glyph glyph-name="gbreve" unicode="&#x11f;" horiz-adv-x="519" 
d="M198 280q0 -42 3 -71t10 -46t18 -24.5t28 -7.5q16 0 28 7t19 24.5t10.5 47t3.5 75.5q0 75 -12 110.5t-47 35.5q-20 0 -32 -11t-18.5 -31t-8.5 -48t-2 -61zM324 541h150v-522q0 -46 -11 -83.5t-37.5 -64t-69.5 -41t-107 -14.5q-59 0 -98 12t-62.5 32.5t-33 48t-9.5 57.5
h150q4 -22 17 -33q17 -11 40 -11q20 0 32.5 7t20 23.5t10 42.5t2.5 65v33h-2q-17 -47 -51.5 -63.5t-76.5 -16.5q-44 0 -73 20.5t-46.5 56t-25 84t-7.5 104.5q0 48 5 97.5t21.5 89t47.5 65t84 25.5q55 0 84.5 -25t43.5 -62h2v73zM273 677q25 0 47 17.5t26 46.5h72
q0 -30 -8.5 -55.5t-26.5 -45t-45.5 -30.5t-64.5 -11q-38 0 -65 11t-45 30.5t-26.5 45t-8.5 55.5h72q4 -29 26 -46.5t47 -17.5z" />
    <glyph glyph-name="Gdotaccent" unicode="&#x120;" horiz-adv-x="556" 
d="M354 497q0 17 -2 38t-8.5 39t-20 30t-36.5 12q-26 0 -41 -14t-23 -45t-10.5 -80.5t-2.5 -120.5q0 -73 2.5 -122.5t11 -79.5t23.5 -43t40 -13q43 0 60 37.5t17 112.5v23h-79v112h235v-383h-115l-4 68h-2q-10 -24 -26.5 -40t-36.5 -25t-43.5 -13t-47.5 -4q-67 0 -108 24.5
t-63.5 70t-30 111.5t-7.5 150q0 88 6 159t31.5 121.5t76.5 78t140 27.5q54 0 92 -11.5t63 -30.5t39.5 -43t21.5 -50t8.5 -51t1.5 -45h-162zM350 895v-130h-124v130h124z" />
    <glyph glyph-name="gdotaccent" unicode="&#x121;" horiz-adv-x="519" 
d="M198 280q0 -42 3 -71t10 -46t18 -24.5t28 -7.5q16 0 28 7t19 24.5t10.5 47t3.5 75.5q0 75 -12 110.5t-47 35.5q-20 0 -32 -11t-18.5 -31t-8.5 -48t-2 -61zM324 541h150v-522q0 -46 -11 -83.5t-37.5 -64t-69.5 -41t-107 -14.5q-59 0 -98 12t-62.5 32.5t-33 48t-9.5 57.5
h150q4 -22 17 -33q17 -11 40 -11q20 0 32.5 7t20 23.5t10 42.5t2.5 65v33h-2q-17 -47 -51.5 -63.5t-76.5 -16.5q-44 0 -73 20.5t-46.5 56t-25 84t-7.5 104.5q0 48 5 97.5t21.5 89t47.5 65t84 25.5q55 0 84.5 -25t43.5 -62h2v73zM330 735v-130h-124v130h124z" />
    <glyph glyph-name="Gcommaaccent" unicode="&#x122;" horiz-adv-x="556" 
d="M354 497q0 17 -2 38t-8.5 39t-20 30t-36.5 12q-26 0 -41 -14t-23 -45t-10.5 -80.5t-2.5 -120.5q0 -73 2.5 -122.5t11 -79.5t23.5 -43t40 -13q43 0 60 37.5t17 112.5v23h-79v112h235v-383h-115l-4 68h-2q-10 -24 -26.5 -40t-36.5 -25t-43.5 -13t-47.5 -4q-67 0 -108 24.5
t-63.5 70t-30 111.5t-7.5 150q0 88 6 159t31.5 121.5t76.5 78t140 27.5q54 0 92 -11.5t63 -30.5t39.5 -43t21.5 -50t8.5 -51t1.5 -45h-162zM212 -50h134v-76q-3 -56 -32.5 -76.5t-84.5 -21.5v40q26 4 34 11t10 19h-61v104z" />
    <glyph glyph-name="gcommaaccent" unicode="&#x123;" horiz-adv-x="519" 
d="M198 280q0 -42 3 -71t10 -46t18 -24.5t28 -7.5q16 0 28 7t19 24.5t10.5 47t3.5 75.5q0 75 -12 110.5t-47 35.5q-20 0 -32 -11t-18.5 -31t-8.5 -48t-2 -61zM324 541h150v-522q0 -46 -11 -83.5t-37.5 -64t-69.5 -41t-107 -14.5q-59 0 -98 12t-62.5 32.5t-33 48t-9.5 57.5
h150q4 -22 17 -33q17 -11 40 -11q20 0 32.5 7t20 23.5t10 42.5t2.5 65v33h-2q-17 -47 -51.5 -63.5t-76.5 -16.5q-44 0 -73 20.5t-46.5 56t-25 84t-7.5 104.5q0 48 5 97.5t21.5 89t47.5 65t84 25.5q55 0 84.5 -25t43.5 -62h2v73zM345 610h-134v76q1 28 9.5 46.5t23 30
t35.5 16t49 5.5v-40q-26 -4 -34 -11t-10 -19h61v-104z" />
    <glyph glyph-name="Hcircumflex" unicode="&#x124;" horiz-adv-x="574" 
d="M52 714h168v-267h134v267h168v-714h-168v305h-134v-305h-168v714zM202 901h168l71 -142h-118l-37 81l-36 -81h-119z" />
    <glyph glyph-name="hcircumflex" unicode="&#x125;" horiz-adv-x="519" 
d="M45 714h162v-232h2q20 40 51 56.5t73 16.5q69 0 105 -36t36 -114v-405h-162v369q0 29 -12 45.5t-35 16.5t-40.5 -18.5t-17.5 -58.5v-354h-162v714zM175 901h168l71 -142h-118l-37 81l-36 -81h-119z" />
    <glyph glyph-name="Hbar" unicode="&#x126;" horiz-adv-x="574" 
d="M52 714h168v-139h134v139h168v-714h-168v284h-134v-284h-168v714zM354 416v91h-134v-91h134z" />
    <glyph glyph-name="hbar" unicode="&#x127;" horiz-adv-x="559" 
d="M-10 647h95v67h162v-67h101v-68h-101v-97h2q20 40 51 56.5t73 16.5q69 0 105 -36t36 -114v-405h-162v369q0 29 -12 45.5t-35 16.5t-40.5 -18.5t-17.5 -58.5v-354h-162v579h-95v68z" />
    <glyph glyph-name="Itilde" unicode="&#x128;" horiz-adv-x="278" 
d="M55 714h168v-714h-168v714zM302 898q-2 -22 -7.5 -46t-17 -44t-30 -33t-45.5 -13q-18 0 -35.5 4.5t-32.5 10.5t-27.5 10.5t-22.5 4.5q-14 0 -20.5 -11t-8.5 -19h-77q2 26 8.5 50.5t18.5 43.5t28.5 30.5t38.5 11.5q20 0 37 -4.5t31 -10.5q15 -5 27.5 -10t23.5 -5
q19 0 24 9.5t7 20.5h80z" />
    <glyph glyph-name="itilde" unicode="&#x129;" 
d="M49 541h162v-541h-162v541zM295 738q-2 -22 -7.5 -46t-17 -44t-30 -33t-45.5 -13q-18 0 -35.5 4.5t-32.5 10.5t-27.5 10.5t-22.5 4.5q-14 0 -20.5 -11t-8.5 -19h-77q2 26 8.5 50.5t18.5 43.5t28.5 30.5t38.5 11.5q20 0 37 -4.5t31 -10.5q15 -5 27.5 -10t23.5 -5
q19 0 24 9.5t7 20.5h80z" />
    <glyph glyph-name="Imacron" unicode="&#x12a;" horiz-adv-x="278" 
d="M55 714h168v-714h-168v714zM-16 874h310v-88h-310v88z" />
    <glyph glyph-name="imacron" unicode="&#x12b;" 
d="M49 541h162v-541h-162v541zM-24 714h310v-88h-310v88z" />
    <glyph glyph-name="Iogonek" unicode="&#x12e;" horiz-adv-x="278" 
d="M260 -197q-22 -12 -53 -19.5t-63 -7.5q-51 0 -79 23.5t-28 65.5q0 39 32 74t80 61h-94v714h168v-714q-92 -71 -92 -121q0 -23 13.5 -35t36.5 -12q30 0 56 16z" />
    <glyph glyph-name="iogonek" unicode="&#x12f;" 
d="M222 -197q-22 -12 -53 -19.5t-63 -7.5q-51 0 -79 23.5t-28 65.5q0 39 32 74t80 61h-62v541h162v-541h-26q-92 -71 -92 -121q0 -23 13.5 -35t36.5 -12q30 0 56 16zM49 722h162v-124h-162v124z" />
    <glyph glyph-name="Idotaccent" unicode="&#x130;" horiz-adv-x="278" 
d="M55 714h168v-714h-168v714zM202 895v-130h-124v130h124z" />
    <glyph glyph-name="dotlessi" unicode="&#x131;" 
d="M49 541h162v-541h-162v541z" />
    <glyph glyph-name="Jcircumflex" unicode="&#x134;" horiz-adv-x="500" 
d="M280 714h168v-499q0 -50 -11 -92t-36.5 -72.5t-67.5 -47.5t-104 -17q-113 0 -163 51.5t-50 145.5v44h156v-31q0 -18 1 -35.5t6 -31.5t16.5 -22.5t31.5 -8.5q18 0 28.5 9t16 24.5t7 37t1.5 46.5v499zM279 901h168l71 -142h-118l-37 81l-36 -81h-119z" />
    <glyph glyph-name="jcircumflex" unicode="&#x135;" 
d="M49 541h162v-554q0 -42 -6.5 -72.5t-24.5 -51t-50 -30t-84 -9.5q-19 0 -34 0.5t-35 1.5v111q5 -1 13 -1h10q18 1 28 5.5t14.5 12.5t5.5 21t1 31v535zM44 741h168l71 -142h-118l-37 81l-36 -81h-119z" />
    <glyph glyph-name="Kcommaaccent" unicode="&#x136;" horiz-adv-x="574" 
d="M52 714h168v-282h2l157 282h181l-187 -308l210 -406h-189l-129 269l-45 -69v-200h-168v714zM241 -50h134v-76q-3 -56 -32.5 -76.5t-84.5 -21.5v40q26 4 34 11t10 19h-61v104z" />
    <glyph glyph-name="kcommaaccent" unicode="&#x137;" horiz-adv-x="519" 
d="M45 714h162v-367h2l121 194h178l-155 -218l174 -323h-177l-101 204l-42 -57v-147h-162v714zM208 -50h134v-76q-3 -56 -32.5 -76.5t-84.5 -21.5v40q26 4 34 11t10 19h-61v104z" />
    <glyph glyph-name="Lacute" unicode="&#x139;" horiz-adv-x="463" 
d="M52 714h168v-578h243v-136h-411v714zM132 901h156l-100 -142h-106z" />
    <glyph glyph-name="lacute" unicode="&#x13a;" 
d="M49 714h162v-714h-162v714zM101 901h156l-100 -142h-106z" />
    <glyph glyph-name="Lcommaaccent" unicode="&#x13b;" horiz-adv-x="463" 
d="M52 714h168v-578h243v-136h-411v714zM183 -50h134v-76q-3 -56 -32.5 -76.5t-84.5 -21.5v40q26 4 34 11t10 19h-61v104z" />
    <glyph glyph-name="lcommaaccent" unicode="&#x13c;" 
d="M49 714h162v-714h-162v714zM64 -50h134v-76q-3 -56 -32.5 -76.5t-84.5 -21.5v40q26 4 34 11t10 19h-61v104z" />
    <glyph glyph-name="Lcaron" unicode="&#x13d;" horiz-adv-x="463" 
d="M52 714h168v-578h243v-136h-411v714zM296 714h131l-59 -142h-98z" />
    <glyph glyph-name="lcaron" unicode="&#x13e;" horiz-adv-x="359" 
d="M49 714h162v-714h-162v714zM272 714h131l-59 -142h-98z" />
    <glyph glyph-name="Ldot" unicode="&#x13f;" horiz-adv-x="463" 
d="M52 714h168v-578h243v-136h-411v714zM405 542v-130h-124v130h124z" />
    <glyph glyph-name="ldot" unicode="&#x140;" horiz-adv-x="399" 
d="M49 714h162v-714h-162v714zM385 542v-130h-124v130h124z" />
    <glyph glyph-name="Lslash" unicode="&#x141;" horiz-adv-x="463" 
d="M52 227l-62 -40v142l62 40v345h168v-236l120 77v-142l-120 -77v-200h243v-136h-411v227z" />
    <glyph glyph-name="lslash" unicode="&#x142;" 
d="M49 253l-49 -33v136l49 33v325h162v-221l49 33v-136l-49 -33v-357h-162v253z" />
    <glyph glyph-name="Nacute" unicode="&#x143;" horiz-adv-x="593" 
d="M52 714h193l138 -464h2v464h156v-714h-190l-147 492h-2v-492h-150v714zM290 901h156l-100 -142h-106z" />
    <glyph glyph-name="nacute" unicode="&#x144;" horiz-adv-x="519" 
d="M45 541h156v-64h2q17 36 51 57t79 21q69 0 105 -36t36 -114v-405h-162v369q0 29 -12 45.5t-35 16.5t-40.5 -18.5t-17.5 -58.5v-354h-162v541zM243 741h156l-100 -142h-106z" />
    <glyph glyph-name="Ncommaaccent" unicode="&#x145;" horiz-adv-x="593" 
d="M52 714h193l138 -464h2v464h156v-714h-190l-147 492h-2v-492h-150v714zM233 -50h134v-76q-3 -56 -32.5 -76.5t-84.5 -21.5v40q26 4 34 11t10 19h-61v104z" />
    <glyph glyph-name="ncommaaccent" unicode="&#x146;" horiz-adv-x="519" 
d="M45 541h156v-64h2q17 36 51 57t79 21q69 0 105 -36t36 -114v-405h-162v369q0 29 -12 45.5t-35 16.5t-40.5 -18.5t-17.5 -58.5v-354h-162v541zM193 -50h134v-76q-3 -56 -32.5 -76.5t-84.5 -21.5v40q26 4 34 11t10 19h-61v104z" />
    <glyph glyph-name="Ncaron" unicode="&#x147;" horiz-adv-x="593" 
d="M52 714h193l138 -464h2v464h156v-714h-190l-147 492h-2v-492h-150v714zM143 901h119l36 -81l37 81h118l-71 -142h-168z" />
    <glyph glyph-name="ncaron" unicode="&#x148;" horiz-adv-x="519" 
d="M45 541h156v-64h2q17 36 51 57t79 21q69 0 105 -36t36 -114v-405h-162v369q0 29 -12 45.5t-35 16.5t-40.5 -18.5t-17.5 -58.5v-354h-162v541zM102 741h119l36 -81l37 81h118l-71 -142h-168z" />
    <glyph glyph-name="Omacron" unicode="&#x14c;" horiz-adv-x="574" 
d="M538 357q0 -74 -6 -141.5t-30.5 -118.5t-75 -81t-139.5 -30q-83 0 -132.5 26t-76 74.5t-34.5 117t-8 153.5t8 153.5t34.5 117t76 74.5t132.5 26q89 0 139.5 -30t75 -81t30.5 -118.5t6 -141.5zM210 357q0 -74 2.5 -123.5t10.5 -79.5t23 -43t40 -13t40.5 13t24 43t11 79.5
t2.5 123.5q0 73 -2.5 123t-11 80t-24 43t-40.5 13t-40 -13t-23 -43t-10.5 -80t-2.5 -123zM131 874h310v-88h-310v88z" />
    <glyph glyph-name="omacron" unicode="&#x14d;" horiz-adv-x="500" 
d="M250 -14q-74 0 -118.5 21.5t-67.5 59.5t-30 89.5t-7 112.5t8.5 113t33 90.5t68 60.5t113.5 22q74 0 118 -21.5t67.5 -59.5t30.5 -89.5t7 -112.5t-8.5 -113t-33 -90.5t-68 -60.5t-113.5 -22zM311 270q0 50 -2.5 84.5t-9 55.5t-18 30t-30.5 9q-36 0 -49 -40t-13 -138
q0 -99 13 -139t49 -40q19 0 30.5 9t18 30t9 55t2.5 84zM94 714h310v-88h-310v88z" />
    <glyph glyph-name="Obreve" unicode="&#x14e;" horiz-adv-x="574" 
d="M538 357q0 -74 -6 -141.5t-30.5 -118.5t-75 -81t-139.5 -30q-83 0 -132.5 26t-76 74.5t-34.5 117t-8 153.5t8 153.5t34.5 117t76 74.5t132.5 26q89 0 139.5 -30t75 -81t30.5 -118.5t6 -141.5zM210 357q0 -74 2.5 -123.5t10.5 -79.5t23 -43t40 -13t40.5 13t24 43t11 79.5
t2.5 123.5q0 73 -2.5 123t-11 80t-24 43t-40.5 13t-40 -13t-23 -43t-10.5 -80t-2.5 -123zM287 837q25 0 47 17.5t26 46.5h72q0 -30 -8.5 -55.5t-26.5 -45t-45.5 -30.5t-64.5 -11q-38 0 -65 11t-45 30.5t-26.5 45t-8.5 55.5h72q4 -29 26 -46.5t47 -17.5z" />
    <glyph glyph-name="obreve" unicode="&#x14f;" horiz-adv-x="500" 
d="M250 -14q-74 0 -118.5 21.5t-67.5 59.5t-30 89.5t-7 112.5t8.5 113t33 90.5t68 60.5t113.5 22q74 0 118 -21.5t67.5 -59.5t30.5 -89.5t7 -112.5t-8.5 -113t-33 -90.5t-68 -60.5t-113.5 -22zM311 270q0 50 -2.5 84.5t-9 55.5t-18 30t-30.5 9q-36 0 -49 -40t-13 -138
q0 -99 13 -139t49 -40q19 0 30.5 9t18 30t9 55t2.5 84zM249 677q25 0 47 17.5t26 46.5h72q0 -30 -8.5 -55.5t-26.5 -45t-45.5 -30.5t-64.5 -11q-38 0 -65 11t-45 30.5t-26.5 45t-8.5 55.5h72q4 -29 26 -46.5t47 -17.5z" />
    <glyph glyph-name="Ohungarumlaut" unicode="&#x150;" horiz-adv-x="574" 
d="M538 357q0 -74 -6 -141.5t-30.5 -118.5t-75 -81t-139.5 -30q-83 0 -132.5 26t-76 74.5t-34.5 117t-8 153.5t8 153.5t34.5 117t76 74.5t132.5 26q89 0 139.5 -30t75 -81t30.5 -118.5t6 -141.5zM210 357q0 -74 2.5 -123.5t10.5 -79.5t23 -43t40 -13t40.5 13t24 43t11 79.5
t2.5 123.5q0 73 -2.5 123t-11 80t-24 43t-40.5 13t-40 -13t-23 -43t-10.5 -80t-2.5 -123zM380 901h156l-100 -142h-106zM180 901h156l-100 -142h-106z" />
    <glyph glyph-name="ohungarumlaut" unicode="&#x151;" horiz-adv-x="500" 
d="M250 -14q-74 0 -118.5 21.5t-67.5 59.5t-30 89.5t-7 112.5t8.5 113t33 90.5t68 60.5t113.5 22q74 0 118 -21.5t67.5 -59.5t30.5 -89.5t7 -112.5t-8.5 -113t-33 -90.5t-68 -60.5t-113.5 -22zM311 270q0 50 -2.5 84.5t-9 55.5t-18 30t-30.5 9q-36 0 -49 -40t-13 -138
q0 -99 13 -139t49 -40q19 0 30.5 9t18 30t9 55t2.5 84zM344 741h156l-100 -142h-106zM144 741h156l-100 -142h-106z" />
    <glyph glyph-name="Racute" unicode="&#x154;" horiz-adv-x="574" 
d="M52 714h282q54 0 90.5 -15.5t59 -41t32.5 -59t10 -70.5q0 -78 -30 -119t-90 -55v-2q40 -6 63 -21t34 -38t14 -53t4 -66q1 -53 3 -84t5.5 -47.5t9 -23t14.5 -10.5v-9h-181q-10 18 -14 51t-4 94q0 46 -3.5 75.5t-11.5 46t-21.5 22.5t-33.5 6h-64v-295h-168v714zM220 413h52
q25 0 42 8.5t26.5 22t13.5 30t4 32.5q0 40 -18.5 65t-68.5 25h-51v-183zM249 901h156l-100 -142h-106z" />
    <glyph glyph-name="racute" unicode="&#x155;" horiz-adv-x="370" 
d="M45 541h156v-76h2q16 36 47.5 63t82.5 27h12q4 0 14 -2v-152q-12 2 -22.5 3t-22.5 1q-49 0 -78 -22t-29 -76v-307h-162v541zM144 741h156l-100 -142h-106z" />
    <glyph glyph-name="Rcommaaccent" unicode="&#x156;" horiz-adv-x="574" 
d="M52 714h282q54 0 90.5 -15.5t59 -41t32.5 -59t10 -70.5q0 -78 -30 -119t-90 -55v-2q40 -6 63 -21t34 -38t14 -53t4 -66q1 -53 3 -84t5.5 -47.5t9 -23t14.5 -10.5v-9h-181q-10 18 -14 51t-4 94q0 46 -3.5 75.5t-11.5 46t-21.5 22.5t-33.5 6h-64v-295h-168v714zM220 413h52
q25 0 42 8.5t26.5 22t13.5 30t4 32.5q0 40 -18.5 65t-68.5 25h-51v-183zM227 -50h134v-76q-3 -56 -32.5 -76.5t-84.5 -21.5v40q26 4 34 11t10 19h-61v104z" />
    <glyph glyph-name="rcommaaccent" unicode="&#x157;" horiz-adv-x="370" 
d="M45 541h156v-76h2q16 36 47.5 63t82.5 27h12q4 0 14 -2v-152q-12 2 -22.5 3t-22.5 1q-49 0 -78 -22t-29 -76v-307h-162v541zM59 -50h134v-76q-3 -56 -32.5 -76.5t-84.5 -21.5v40q26 4 34 11t10 19h-61v104z" />
    <glyph glyph-name="Rcaron" unicode="&#x158;" horiz-adv-x="574" 
d="M52 714h282q54 0 90.5 -15.5t59 -41t32.5 -59t10 -70.5q0 -78 -30 -119t-90 -55v-2q40 -6 63 -21t34 -38t14 -53t4 -66q1 -53 3 -84t5.5 -47.5t9 -23t14.5 -10.5v-9h-181q-10 18 -14 51t-4 94q0 46 -3.5 75.5t-11.5 46t-21.5 22.5t-33.5 6h-64v-295h-168v714zM220 413h52
q25 0 42 8.5t26.5 22t13.5 30t4 32.5q0 40 -18.5 65t-68.5 25h-51v-183zM112 901h119l36 -81l37 81h118l-71 -142h-168z" />
    <glyph glyph-name="rcaron" unicode="&#x159;" horiz-adv-x="370" 
d="M45 541h156v-76h2q16 36 47.5 63t82.5 27h12q4 0 14 -2v-152q-12 2 -22.5 3t-22.5 1q-49 0 -78 -22t-29 -76v-307h-162v541zM50 741h119l36 -81l37 81h118l-71 -142h-168z" />
    <glyph glyph-name="Sacute" unicode="&#x15a;" horiz-adv-x="537" 
d="M191 218v-25q0 -41 14.5 -68t58.5 -27q22 0 36.5 7.5t23.5 19.5t12.5 27.5t3.5 30.5q0 38 -22.5 59.5t-57 36.5t-74 29t-74 38.5t-57 64.5t-22.5 107q0 43 12 81t40 66.5t72.5 45.5t109.5 17q63 0 106.5 -15t70.5 -41.5t39 -62t12 -76.5v-17h-162q0 52 -14 75
q-15 25 -51 25q-67 0 -67 -77q0 -38 22.5 -59t57 -36t74 -29.5t74 -38t57 -62t22.5 -101.5q0 -61 -16.5 -104t-48 -70.5t-76.5 -40t-103 -12.5q-46 0 -88.5 8t-75 29t-52 57t-19.5 92v46h162zM262 901h156l-100 -142h-106z" />
    <glyph glyph-name="sacute" unicode="&#x15b;" horiz-adv-x="463" 
d="M169 172q1 -18 3 -33.5t8 -27.5q7 -11 18.5 -18t31.5 -7q29 0 43.5 16t14.5 39q0 19 -12 36t-50 30q-50 17 -87 32t-61.5 34.5t-36.5 47.5t-12 71q0 81 53.5 122t152.5 41q57 0 94.5 -13t60 -34t32 -48.5t9.5 -56.5v-18h-144v10q0 35 -13.5 47.5t-39.5 12.5
q-32 0 -43.5 -14t-11.5 -36q0 -24 19 -36.5t48 -22t62.5 -19.5t62.5 -29t48 -51t19 -84q0 -82 -52.5 -129.5t-154.5 -47.5q-109 0 -157.5 40.5t-48.5 121.5v24h144zM229 741h156l-100 -142h-106z" />
    <glyph glyph-name="Scircumflex" unicode="&#x15c;" horiz-adv-x="537" 
d="M191 218v-25q0 -41 14.5 -68t58.5 -27q22 0 36.5 7.5t23.5 19.5t12.5 27.5t3.5 30.5q0 38 -22.5 59.5t-57 36.5t-74 29t-74 38.5t-57 64.5t-22.5 107q0 43 12 81t40 66.5t72.5 45.5t109.5 17q63 0 106.5 -15t70.5 -41.5t39 -62t12 -76.5v-17h-162q0 52 -14 75
q-15 25 -51 25q-67 0 -67 -77q0 -38 22.5 -59t57 -36t74 -29.5t74 -38t57 -62t22.5 -101.5q0 -61 -16.5 -104t-48 -70.5t-76.5 -40t-103 -12.5q-46 0 -88.5 8t-75 29t-52 57t-19.5 92v46h162zM186 901h168l71 -142h-118l-37 81l-36 -81h-119z" />
    <glyph glyph-name="scircumflex" unicode="&#x15d;" horiz-adv-x="463" 
d="M169 172q1 -18 3 -33.5t8 -27.5q7 -11 18.5 -18t31.5 -7q29 0 43.5 16t14.5 39q0 19 -12 36t-50 30q-50 17 -87 32t-61.5 34.5t-36.5 47.5t-12 71q0 81 53.5 122t152.5 41q57 0 94.5 -13t60 -34t32 -48.5t9.5 -56.5v-18h-144v10q0 35 -13.5 47.5t-39.5 12.5
q-32 0 -43.5 -14t-11.5 -36q0 -24 19 -36.5t48 -22t62.5 -19.5t62.5 -29t48 -51t19 -84q0 -82 -52.5 -129.5t-154.5 -47.5q-109 0 -157.5 40.5t-48.5 121.5v24h144zM148 741h168l71 -142h-118l-37 81l-36 -81h-119z" />
    <glyph glyph-name="Scedilla" unicode="&#x15e;" horiz-adv-x="537" 
d="M158 -153q14 -6 33 -10.5t40 -4.5q26 0 36 10t10 24q0 13 -13.5 22t-32.5 9q-11 0 -19 -2.5t-10 -3.5l-23 19l44 78q-24 1 -48 6q-31 6 -58 19t-46.5 34.5t-30.5 52t-11 72.5v46h162v-25q0 -41 14.5 -68t58.5 -27q22 0 36.5 7.5t23.5 19.5t12.5 27.5t3.5 30.5
q0 38 -22.5 59.5t-57 36.5t-74 29t-74 38.5t-57 64.5t-22.5 107q0 43 12 81t40 66.5t72.5 45.5t109.5 17q63 0 106.5 -15t70.5 -41.5t39 -62t12 -76.5v-17h-162q0 52 -14 75q-15 25 -51 25q-67 0 -67 -77q0 -38 22.5 -59t57 -36t74 -29.5t74 -38t57 -62t22.5 -101.5
q0 -91 -36.5 -143.5t-104.5 -70.5q-19 -5 -40.5 -8.5t-44.5 -4.5l-27 -46q9 4 26 4q48 0 69 -24t21 -53q0 -37 -29.5 -64t-90.5 -27q-37 0 -65 5.5t-49 13.5z" />
    <glyph glyph-name="scedilla" unicode="&#x15f;" horiz-adv-x="463" 
d="M124 -153q14 -6 33 -10.5t40 -4.5q26 0 36 10t10 24q0 13 -13.5 22t-32.5 9q-11 0 -19 -2.5t-10 -3.5l-23 19l45 78q-77 6 -117 38q-48 40 -48 122v24h144q1 -18 3 -33.5t8 -27.5q7 -11 18.5 -18t31.5 -7q29 0 43.5 16t14.5 39q0 19 -12 36t-50 30q-50 17 -87 32
t-61.5 34.5t-36.5 47.5t-12 71q0 81 53.5 122t152.5 41q57 0 94.5 -13t60 -34t32 -48.5t9.5 -56.5v-18h-144v10q0 35 -13.5 47.5t-39.5 12.5q-32 0 -43.5 -14t-11.5 -36q0 -24 19 -36.5t48 -22t62.5 -19.5t62.5 -29t48 -51t19 -84q0 -82 -53 -130q-48 -42 -137 -47l-27 -46
q9 4 26 4q48 0 69 -24t21 -53q0 -37 -29.5 -64t-90.5 -27q-37 0 -65 5.5t-49 13.5z" />
    <glyph glyph-name="Tcommaaccent" unicode="&#x162;" horiz-adv-x="480" 
d="M156 578h-150v136h468v-136h-150v-578h-168v578zM172 -50h134v-76q-3 -56 -32.5 -76.5t-84.5 -21.5v40q26 4 34 11t10 19h-61v104z" />
    <glyph glyph-name="tcommaaccent" unicode="&#x163;" horiz-adv-x="315" 
d="M66 429h-67v112h67v159h162v-159h75v-112h-75v-273q0 -29 11.5 -39.5t40.5 -10.5q5 0 11.5 0.5t11.5 1.5v-108q-47 -6 -93 -6q-42 0 -70 5t-44.5 20.5t-23 44.5t-6.5 76v289zM117 -50h134v-76q-3 -56 -32.5 -76.5t-84.5 -21.5v40q26 4 34 11t10 19h-61v104z" />
    <glyph glyph-name="Tcaron" unicode="&#x164;" horiz-adv-x="480" 
d="M156 578h-150v136h468v-136h-150v-578h-168v578zM87 901h119l36 -81l37 81h118l-71 -142h-168z" />
    <glyph glyph-name="tcaron" unicode="&#x165;" horiz-adv-x="414" 
d="M323 714h131l-59 -142h-98zM66 429h-67v112h67v159h162v-159h75v-112h-75v-273q0 -29 11.5 -39.5t40.5 -10.5q5 0 11.5 0.5t11.5 1.5v-108q-47 -6 -93 -6q-42 0 -70 5t-44.5 20.5t-23 44.5t-6.5 76v289z" />
    <glyph glyph-name="Tbar" unicode="&#x166;" horiz-adv-x="480" 
d="M53 423h103v155h-150v136h468v-136h-150v-155h102v-68h-102v-355h-168v355h-103v68z" />
    <glyph glyph-name="tbar" unicode="&#x167;" horiz-adv-x="315" 
d="M-10 323h76v106h-67v112h67v159h162v-159h75v-112h-75v-106h84v-68h-84v-99q0 -29 11.5 -39.5t40.5 -10.5q5 0 11.5 0.5t11.5 1.5v-108q-47 -6 -93 -6q-42 0 -70 5t-44.5 20.5t-23 44.5t-6.5 76v115h-76v68z" />
    <glyph glyph-name="Utilde" unicode="&#x168;" horiz-adv-x="556" 
d="M513 236q0 -53 -9.5 -98.5t-35 -79t-71.5 -53t-119 -19.5t-119 19.5t-71.5 53t-35 79t-9.5 98.5v478h168v-527q0 -42 16.5 -65.5t50.5 -23.5t50.5 23.5t16.5 65.5v527h168v-478zM442 898q-2 -22 -7.5 -46t-17 -44t-30 -33t-45.5 -13q-18 0 -35.5 4.5t-32.5 10.5
t-27.5 10.5t-22.5 4.5q-14 0 -20.5 -11t-8.5 -19h-77q2 26 8.5 50.5t18.5 43.5t28.5 30.5t38.5 11.5q20 0 37 -4.5t31 -10.5q15 -5 27.5 -10t23.5 -5q19 0 24 9.5t7 20.5h80z" />
    <glyph glyph-name="utilde" unicode="&#x169;" horiz-adv-x="519" 
d="M474 0h-156v64h-2q-17 -36 -51 -57t-79 -21q-69 0 -105 36t-36 114v405h162v-369q0 -29 12 -45.5t35 -16.5t40.5 18.5t17.5 58.5v354h162v-541zM423 738q-2 -22 -7.5 -46t-17 -44t-30 -33t-45.5 -13q-18 0 -35.5 4.5t-32.5 10.5t-27.5 10.5t-22.5 4.5q-14 0 -20.5 -11
t-8.5 -19h-77q2 26 8.5 50.5t18.5 43.5t28.5 30.5t38.5 11.5q20 0 37 -4.5t31 -10.5q15 -5 27.5 -10t23.5 -5q19 0 24 9.5t7 20.5h80z" />
    <glyph glyph-name="Umacron" unicode="&#x16a;" horiz-adv-x="556" 
d="M513 236q0 -53 -9.5 -98.5t-35 -79t-71.5 -53t-119 -19.5t-119 19.5t-71.5 53t-35 79t-9.5 98.5v478h168v-527q0 -42 16.5 -65.5t50.5 -23.5t50.5 23.5t16.5 65.5v527h168v-478zM125 874h310v-88h-310v88z" />
    <glyph glyph-name="umacron" unicode="&#x16b;" horiz-adv-x="519" 
d="M474 0h-156v64h-2q-17 -36 -51 -57t-79 -21q-69 0 -105 36t-36 114v405h162v-369q0 -29 12 -45.5t35 -16.5t40.5 18.5t17.5 58.5v354h162v-541zM106 714h310v-88h-310v88z" />
    <glyph glyph-name="Ubreve" unicode="&#x16c;" horiz-adv-x="556" 
d="M513 236q0 -53 -9.5 -98.5t-35 -79t-71.5 -53t-119 -19.5t-119 19.5t-71.5 53t-35 79t-9.5 98.5v478h168v-527q0 -42 16.5 -65.5t50.5 -23.5t50.5 23.5t16.5 65.5v527h168v-478zM280 837q25 0 47 17.5t26 46.5h72q0 -30 -8.5 -55.5t-26.5 -45t-45.5 -30.5t-64.5 -11
q-38 0 -65 11t-45 30.5t-26.5 45t-8.5 55.5h72q4 -29 26 -46.5t47 -17.5z" />
    <glyph glyph-name="ubreve" unicode="&#x16d;" horiz-adv-x="519" 
d="M474 0h-156v64h-2q-17 -36 -51 -57t-79 -21q-69 0 -105 36t-36 114v405h162v-369q0 -29 12 -45.5t35 -16.5t40.5 18.5t17.5 58.5v354h162v-541zM261 677q25 0 47 17.5t26 46.5h72q0 -30 -8.5 -55.5t-26.5 -45t-45.5 -30.5t-64.5 -11q-38 0 -65 11t-45 30.5t-26.5 45
t-8.5 55.5h72q4 -29 26 -46.5t47 -17.5z" />
    <glyph glyph-name="Uring" unicode="&#x16e;" horiz-adv-x="556" 
d="M513 236q0 -53 -9.5 -98.5t-35 -79t-71.5 -53t-119 -19.5t-119 19.5t-71.5 53t-35 79t-9.5 98.5v478h168v-527q0 -42 16.5 -65.5t50.5 -23.5t50.5 23.5t16.5 65.5v527h168v-478zM220 850q0 -25 17.5 -42.5t42.5 -17.5t42.5 17.5t17.5 42.5t-17.5 42.5t-42.5 17.5
t-42.5 -17.5t-17.5 -42.5zM159 850q0 26 9.5 47.5t26 37t38.5 24t47 8.5t47 -8.5t38.5 -24t26 -37t9.5 -47.5t-9.5 -47.5t-26 -36.5t-38.5 -23t-47 -8t-47 8t-38.5 23t-26 36.5t-9.5 47.5z" />
    <glyph glyph-name="uring" unicode="&#x16f;" horiz-adv-x="519" 
d="M474 0h-156v64h-2q-17 -36 -51 -57t-79 -21q-69 0 -105 36t-36 114v405h162v-369q0 -29 12 -45.5t35 -16.5t40.5 18.5t17.5 58.5v354h162v-541zM200 694q0 -25 17.5 -42.5t42.5 -17.5t42.5 17.5t17.5 42.5t-17.5 42.5t-42.5 17.5t-42.5 -17.5t-17.5 -42.5zM139 694
q0 26 9.5 47.5t26 37t38.5 24t47 8.5t47 -8.5t38.5 -24t26 -37t9.5 -47.5t-9.5 -47.5t-26 -36.5t-38.5 -23t-47 -8t-47 8t-38.5 23t-26 36.5t-9.5 47.5z" />
    <glyph glyph-name="Uhungarumlaut" unicode="&#x170;" horiz-adv-x="556" 
d="M513 236q0 -53 -9.5 -98.5t-35 -79t-71.5 -53t-119 -19.5t-119 19.5t-71.5 53t-35 79t-9.5 98.5v478h168v-527q0 -42 16.5 -65.5t50.5 -23.5t50.5 23.5t16.5 65.5v527h168v-478zM374 901h156l-100 -142h-106zM174 901h156l-100 -142h-106z" />
    <glyph glyph-name="uhungarumlaut" unicode="&#x171;" horiz-adv-x="519" 
d="M474 0h-156v64h-2q-17 -36 -51 -57t-79 -21q-69 0 -105 36t-36 114v405h162v-369q0 -29 12 -45.5t35 -16.5t40.5 18.5t17.5 58.5v354h162v-541zM357 741h156l-100 -142h-106zM157 741h156l-100 -142h-106z" />
    <glyph glyph-name="Uogonek" unicode="&#x172;" horiz-adv-x="556" 
d="M383 -197q-22 -12 -53 -19.5t-63 -7.5q-51 0 -79 23.5t-28 65.5q0 39 32 74q24 27 57 48q-54 3 -90 18q-35 15 -57.5 38t-35.5 52t-18 64.5t-5 76.5v478h168v-527q0 -42 16.5 -65.5t50.5 -23.5t50.5 23.5t16.5 65.5v527h168v-478q0 -41 -5 -76.5t-18 -64.5t-35.5 -52
t-57.5 -38q-14 -5 -30 -9.5t-35 -6.5q-78 -65 -78 -110q0 -23 13.5 -35t36.5 -12q30 0 56 16z" />
    <glyph glyph-name="uogonek" unicode="&#x173;" horiz-adv-x="519" 
d="M474 0h-86q-72 -72 -72 -122q0 -25 13.5 -35.5t33.5 -10.5q26 0 51 16l20 -45q-19 -12 -47 -19.5t-57 -7.5q-46 0 -72 22t-26 64q0 37 21.5 67.5t64.5 70.5v64h-2q-17 -36 -51 -57t-79 -21q-69 0 -105 36t-36 114v405h162v-369q0 -29 12 -45.5t35 -16.5t40.5 18.5
t17.5 58.5v354h162v-541z" />
    <glyph glyph-name="Wcircumflex" unicode="&#x174;" horiz-adv-x="778" 
d="M6 714h168l62 -508h2l74 508h156l80 -508h2l60 508h162l-124 -714h-186l-73 507h-2l-69 -507h-186zM307 901h168l71 -142h-118l-37 81l-36 -81h-119z" />
    <glyph glyph-name="wcircumflex" unicode="&#x175;" horiz-adv-x="741" 
d="M9 541h162l52 -399h2l61 399h174l57 -399h2l57 399h156l-117 -541h-183l-59 399h-2l-63 -399h-186zM290 741h168l71 -142h-118l-37 81l-36 -81h-119z" />
    <glyph glyph-name="Ycircumflex" unicode="&#x176;" horiz-adv-x="536" 
d="M184 281l-181 433h186l80 -265h2l82 265h180l-181 -433v-281h-168v281zM187 901h168l71 -142h-118l-37 81l-36 -81h-119z" />
    <glyph glyph-name="ycircumflex" unicode="&#x177;" horiz-adv-x="481" 
d="M10 541h168l66 -379h2l63 379h162l-145 -545q-14 -52 -29.5 -85.5t-38 -52.5t-54.5 -26.5t-79 -7.5h-37q-8 0 -16.5 0.5t-16.5 1.5v114q10 -2 20 -3t20 -1q23 0 42 12.5t26 47.5zM162 741h168l71 -142h-118l-37 81l-36 -81h-119z" />
    <glyph glyph-name="Zacute" unicode="&#x179;" horiz-adv-x="481" 
d="M23 124l242 454h-223v136h416v-118l-245 -460h245v-136h-435v124zM240 901h156l-100 -142h-106z" />
    <glyph glyph-name="zacute" unicode="&#x17a;" horiz-adv-x="463" 
d="M31 124l204 293h-195v124h387v-124l-210 -293h215v-124h-401v124zM224 741h156l-100 -142h-106z" />
    <glyph glyph-name="Zdotaccent" unicode="&#x17b;" horiz-adv-x="481" 
d="M23 124l242 454h-223v136h416v-118l-245 -460h245v-136h-435v124zM317 895v-130h-124v130h124z" />
    <glyph glyph-name="zdotaccent" unicode="&#x17c;" horiz-adv-x="463" 
d="M31 124l204 293h-195v124h387v-124l-210 -293h215v-124h-401v124zM300 735v-130h-124v130h124z" />
    <glyph glyph-name="Scommaaccent" unicode="&#x218;" horiz-adv-x="537" 
d="M191 218v-25q0 -41 14.5 -68t58.5 -27q22 0 36.5 7.5t23.5 19.5t12.5 27.5t3.5 30.5q0 38 -22.5 59.5t-57 36.5t-74 29t-74 38.5t-57 64.5t-22.5 107q0 43 12 81t40 66.5t72.5 45.5t109.5 17q63 0 106.5 -15t70.5 -41.5t39 -62t12 -76.5v-17h-162q0 52 -14 75
q-15 25 -51 25q-67 0 -67 -77q0 -38 22.5 -59t57 -36t74 -29.5t74 -38t57 -62t22.5 -101.5q0 -61 -16.5 -104t-48 -70.5t-76.5 -40t-103 -12.5q-46 0 -88.5 8t-75 29t-52 57t-19.5 92v46h162zM196 -50h134v-76q-3 -56 -32.5 -76.5t-84.5 -21.5v40q26 4 34 11t10 19h-61v104z
" />
    <glyph glyph-name="scommaaccent" unicode="&#x219;" horiz-adv-x="463" 
d="M169 172q1 -18 3 -33.5t8 -27.5q7 -11 18.5 -18t31.5 -7q29 0 43.5 16t14.5 39q0 19 -12 36t-50 30q-50 17 -87 32t-61.5 34.5t-36.5 47.5t-12 71q0 81 53.5 122t152.5 41q57 0 94.5 -13t60 -34t32 -48.5t9.5 -56.5v-18h-144v10q0 35 -13.5 47.5t-39.5 12.5
q-32 0 -43.5 -14t-11.5 -36q0 -24 19 -36.5t48 -22t62.5 -19.5t62.5 -29t48 -51t19 -84q0 -82 -52.5 -129.5t-154.5 -47.5q-109 0 -157.5 40.5t-48.5 121.5v24h144zM166 -50h134v-76q-3 -56 -32.5 -76.5t-84.5 -21.5v40q26 4 34 11t10 19h-61v104z" />
    <glyph glyph-name="uni021A" unicode="&#x21a;" horiz-adv-x="480" 
d="M156 578h-150v136h468v-136h-150v-578h-168v578zM172 -50h134v-76q-3 -56 -32.5 -76.5t-84.5 -21.5v40q26 4 34 11t10 19h-61v104z" />
    <glyph glyph-name="uni021B" unicode="&#x21b;" horiz-adv-x="315" 
d="M66 429h-67v112h67v159h162v-159h75v-112h-75v-273q0 -29 11.5 -39.5t40.5 -10.5q5 0 11.5 0.5t11.5 1.5v-108q-47 -6 -93 -6q-42 0 -70 5t-44.5 20.5t-23 44.5t-6.5 76v289zM117 -50h134v-76q-3 -56 -32.5 -76.5t-84.5 -21.5v40q26 4 34 11t10 19h-61v104z" />
    <glyph glyph-name="dotlessj" unicode="&#x237;" 
d="M49 541h162v-554q0 -42 -6.5 -72.5t-24.5 -51t-50 -30t-84 -9.5q-19 0 -34 0.5t-35 1.5v111q5 -1 13 -1h10q18 1 28 5.5t14.5 12.5t5.5 21t1 31v535z" />
    <glyph glyph-name="caron" unicode="&#x2c7;" 
d="M-25 741h119l36 -81l37 81h118l-71 -142h-168z" />
    <glyph glyph-name="uni02C9" unicode="&#x2c9;" 
d="M-25 714h310v-88h-310v88z" />
    <glyph glyph-name="breve" unicode="&#x2d8;" 
d="M130 677q25 0 47 17.5t26 46.5h72q0 -30 -8.5 -55.5t-26.5 -45t-45.5 -30.5t-64.5 -11q-38 0 -65 11t-45 30.5t-26.5 45t-8.5 55.5h72q4 -29 26 -46.5t47 -17.5z" />
    <glyph glyph-name="dotaccent" unicode="&#x2d9;" 
d="M192 735v-130h-124v130h124z" />
    <glyph glyph-name="ring" unicode="&#x2da;" 
d="M70 694q0 -25 17.5 -42.5t42.5 -17.5t42.5 17.5t17.5 42.5t-17.5 42.5t-42.5 17.5t-42.5 -17.5t-17.5 -42.5zM9 694q0 26 9.5 47.5t26 37t38.5 24t47 8.5t47 -8.5t38.5 -24t26 -37t9.5 -47.5t-9.5 -47.5t-26 -36.5t-38.5 -23t-47 -8t-47 8t-38.5 23t-26 36.5t-9.5 47.5z
" />
    <glyph glyph-name="ogonek" unicode="&#x2db;" 
d="M236 -197q-22 -12 -53 -19.5t-63 -7.5q-51 0 -79 23.5t-28 65.5q0 39 32 74t80 61h74q-92 -71 -92 -121q0 -23 13.5 -35t36.5 -12q30 0 56 16z" />
    <glyph glyph-name="hungarumlaut" unicode="&#x2dd;" 
d="M219 741h156l-100 -142h-106zM19 741h156l-100 -142h-106z" />
    <glyph glyph-name="uni0394" unicode="&#x394;" horiz-adv-x="714" 
d="M348 545l-135 -405h280zM11 0l254 712h163l275 -712h-692z" />
    <glyph glyph-name="uni03A9" unicode="&#x3a9;" horiz-adv-x="773" 
d="M721 414q0 -42 -11 -83.5t-33 -76.5t-55 -60.5t-77 -35.5v-24h175v-134h-296v215q34 6 59 23t41.5 42t24 55.5t7.5 62.5q0 38 -11 71.5t-32.5 59t-53 40t-71.5 14.5q-41 0 -73 -15t-54 -41t-34 -60.5t-12 -72.5q0 -32 8 -61.5t24 -53.5t41 -41t58 -23v-215h-296v134h175
v24q-44 12 -76.5 37t-54.5 58.5t-33 74t-11 84.5q0 73 26.5 130.5t72.5 97.5t107.5 60.5t131.5 20.5q69 0 129.5 -21.5t106 -61t71.5 -96.5t26 -128z" />
    <glyph glyph-name="uni03BC" unicode="&#x3bc;" horiz-adv-x="519" 
d="M474 0h-156v64h-2q-6 -14 -15 -28t-20.5 -25t-24.5 -18t-27 -7q-15 0 -22 4v-166h-162v717h162v-369q0 -29 12 -45.5t35 -16.5t40.5 18.5t17.5 58.5v354h162v-541z" />
    <glyph glyph-name="pi" unicode="&#x3c0;" horiz-adv-x="622" 
d="M596 19q-27 -14 -50 -21t-54 -7q-37 0 -60.5 10.5t-37 29.5t-18.5 45.5t-5 58.5v226h-157v-361h-144v361h-70v132h596v-132h-81v-197q0 -20 7 -35t31 -15q11 0 22 3.5t21 7.5v-106z" />
    <glyph glyph-name="fraction" unicode="&#x2044;" horiz-adv-x="167" 
d="M234 725h99l-400 -756h-99z" />
    <glyph glyph-name="afii61289" unicode="&#x2113;" horiz-adv-x="500" 
d="M462 55q-42 -35 -85 -52t-93 -17q-41 0 -73 11.5t-53.5 32t-32.5 47.5t-11 59v30l-54 -46h-2l-53 81l108 86v235q0 42 14 78.5t39 63t59.5 42t75.5 15.5q36 0 65 -11t49.5 -31.5t31.5 -48.5t11 -62q0 -78 -47.5 -150.5t-147.5 -153.5v-104q0 -36 18.5 -50.5t40.5 -14.5
q18 0 40.5 9t47.5 28h2zM336 559q0 26 -9.5 44.5t-26.5 18.5q-16 0 -26.5 -20t-10.5 -52v-161q40 42 56.5 85t16.5 85z" />
    <glyph glyph-name="Omega" unicode="&#x2126;" horiz-adv-x="773" 
d="M721 414q0 -42 -11 -83.5t-33 -76.5t-55 -60.5t-77 -35.5v-24h175v-134h-296v215q34 6 59 23t41.5 42t24 55.5t7.5 62.5q0 38 -11 71.5t-32.5 59t-53 40t-71.5 14.5q-41 0 -73 -15t-54 -41t-34 -60.5t-12 -72.5q0 -32 8 -61.5t24 -53.5t41 -41t58 -23v-215h-296v134h175
v24q-44 12 -76.5 37t-54.5 58.5t-33 74t-11 84.5q0 73 26.5 130.5t72.5 97.5t107.5 60.5t131.5 20.5q69 0 129.5 -21.5t106 -61t71.5 -96.5t26 -128z" />
    <glyph glyph-name="estimated" unicode="&#x212e;" horiz-adv-x="600" 
d="M157 259v-181q59 -59 145 -59q63 0 109 28.5t84 91.5l35 -21q-23 -36 -46.5 -61.5t-51 -42t-59.5 -24t-71 -7.5q-59 0 -106.5 21.5t-81.5 59t-52 87.5t-18 108t18 108.5t52 87.5t81.5 58.5t106.5 21.5q58 0 105.5 -20.5t81.5 -57t53 -87t19 -111.5h-404zM448 295v145
q-63 60 -147 60t-144 -60v-145h291z" />
    <glyph glyph-name="partialdiff" unicode="&#x2202;" horiz-adv-x="584" 
d="M392 293q-20 20 -46 34t-55 14q-27 0 -47 -10.5t-33 -28.5t-19.5 -41t-6.5 -47q0 -22 5.5 -43.5t17.5 -38.5t30 -27.5t43 -10.5q37 0 59 21t33.5 51.5t15 65t3.5 61.5zM540 359q0 -65 -10.5 -131.5t-39 -120t-79.5 -87.5t-131 -34q-53 0 -96.5 17t-74.5 47.5t-48.5 74
t-17.5 96.5q0 48 16.5 89.5t46 72.5t70.5 48.5t90 17.5q36 0 67.5 -11.5t60.5 -32.5q0 31 -5 66.5t-19 66t-39 51t-64 20.5q-37 0 -65.5 -15.5t-54.5 -39.5l-79 88q45 39 90 59t105 20q78 0 131.5 -31.5t85.5 -82.5t46 -116t14 -132z" />
    <glyph glyph-name="Delta" unicode="&#x2206;" horiz-adv-x="714" 
d="M348 545l-135 -405h280zM11 0l254 712h163l275 -712h-692z" />
    <glyph glyph-name="product" unicode="&#x220f;" horiz-adv-x="755" 
d="M557 -214v857h-359v-857h-147v1000h653v-1000h-147z" />
    <glyph glyph-name="summation" unicode="&#x2211;" horiz-adv-x="691" 
d="M29 -214v125l290 382l-279 367v126h611v-144h-415l256 -349l-272 -363h443v-144h-634z" />
    <glyph glyph-name="minus" unicode="&#x2212;" horiz-adv-x="600" 
d="M47 318h506v-130h-506v130z" />
    <glyph glyph-name="uni2215" unicode="&#x2215;" horiz-adv-x="167" 
d="M234 725h99l-400 -756h-99z" />
    <glyph glyph-name="uni2219" unicode="&#x2219;" 
d="M27 273q0 21 8 40t22 33t33 22t40 8t40 -8t33 -22t22 -33t8 -40t-8 -40t-22 -33t-33 -22t-40 -8t-40 8t-33 22t-22 33t-8 40z" />
    <glyph glyph-name="radical" unicode="&#x221a;" horiz-adv-x="595" 
d="M379 -214h-132l-144 293l-57 -26l-53 114l187 86l110 -241l157 774h155z" />
    <glyph glyph-name="infinity" unicode="&#x221e;" horiz-adv-x="873" 
d="M361 268q-10 13 -23.5 27.5t-29 27t-32.5 20.5t-35 8q-35 0 -54.5 -24t-19.5 -57q0 -35 20.5 -57.5t55.5 -22.5q19 0 35.5 7t31.5 18t27.5 25t23.5 28zM705 271q0 35 -21 57.5t-56 22.5q-18 0 -34.5 -8t-31.5 -20.5t-28 -27t-23 -27.5q11 -14 23.5 -28.5t27.5 -25.5
t32 -18t37 -7q35 0 54.5 24.5t19.5 57.5zM828 273q0 -45 -13 -83.5t-38.5 -67t-62 -45t-82.5 -16.5q-64 0 -111 34.5t-84 82.5q-19 -24 -39 -45t-43.5 -37t-50 -25t-59.5 -9q-47 0 -84 16t-62.5 44t-39.5 66.5t-14 83.5t13 82.5t38 65.5t61 43.5t83 15.5q34 0 62 -10
t51.5 -26.5t44 -39.5t39.5 -48q19 27 39 49.5t43 39t51 26t63 9.5q46 0 82.5 -15.5t61.5 -43t38 -65.5t13 -82z" />
    <glyph glyph-name="integral" unicode="&#x222b;" horiz-adv-x="649" 
d="M549 691q0 -30 -18.5 -49.5t-49.5 -19.5q-30 0 -42 15.5t-17 34t-9 34t-17 15.5q-7 0 -10.5 -4.5t-5.5 -10.5t-2.5 -13t-0.5 -12q0 -46 4 -92t4 -92v-333q0 -36 0.5 -78t-3 -84t-13 -81t-30 -69t-54.5 -48t-86 -18q-22 0 -45.5 6t-42.5 18t-31.5 31t-12.5 45
q0 30 19.5 46t48.5 16q31 0 42.5 -15.5t16 -34t7 -34t16.5 -15.5t17 14.5t3 25.5q0 40 -4 80t-4 80v421q0 51 3 106.5t21 102t56 76.5t108 30q21 0 44 -5.5t42.5 -17t32.5 -29t13 -42.5z" />
    <glyph glyph-name="approxequal" unicode="&#x2248;" horiz-adv-x="593" 
d="M576 251q-2 -33 -11.5 -69.5t-28 -67t-47 -50.5t-68.5 -20q-30 0 -63 9.5t-66.5 21.5t-65.5 21.5t-60 9.5q-25 0 -38.5 -16.5t-16.5 -39.5h-94q1 31 11.5 67t29.5 66.5t47.5 50.5t65.5 20q31 0 63 -9.5t64 -20.5t64 -20.5t63 -9.5q28 0 39.5 16.5t15.5 40.5h96zM576 491
q-4 -57 -23.5 -104.5t-68.5 -79.5q-32 -21 -66 -21q-29 0 -61.5 9.5t-65.5 21t-65 21t-59 9.5q-23 0 -38 -17t-17 -39h-95q1 36 11.5 72t31 65t51 47t71.5 18q29 0 60 -9t62.5 -19.5t62 -19.5t58.5 -9q27 0 39.5 14.5t15.5 40.5h96z" />
    <glyph glyph-name="notequal" unicode="&#x2260;" horiz-adv-x="593" 
d="M281 77l-79 -160l-128 63l48 97h-96v147h168l47 93h-215v146h287l79 160l128 -63l-48 -97h94v-146h-166l-46 -93h212v-147h-285z" />
    <glyph glyph-name="lessequal" unicode="&#x2264;" horiz-adv-x="593" 
d="M26 -49v146h540v-146h-540zM26 288v145l540 155v-150l-337 -77l337 -88v-150z" />
    <glyph glyph-name="greaterequal" unicode="&#x2265;" horiz-adv-x="593" 
d="M26 -49v146h540v-146h-540zM26 123v150l337 88l-337 77v150l540 -155v-145z" />
    <glyph glyph-name="lozenge" unicode="&#x25ca;" horiz-adv-x="593" 
d="M296 599l-108 -243l108 -244l107 244zM362 -35h-133l-190 391l191 391h132l192 -391z" />
    <glyph glyph-name="grave.cap" unicode="&#xe300;" 
d="M-15 901h156l50 -142h-106z" />
    <glyph glyph-name="acute.cap" unicode="&#xe301;" 
d="M119 901h156l-100 -142h-106z" />
    <glyph glyph-name="circumflex.cap" unicode="&#xe302;" 
d="M46 901h168l71 -142h-118l-37 81l-36 -81h-119z" />
    <glyph glyph-name="caron.cap" unicode="&#xe303;" 
d="M-25 901h119l36 -81l37 81h118l-71 -142h-168z" />
    <glyph glyph-name="tilde.cap" unicode="&#xe304;" 
d="M292 898q-2 -22 -7.5 -46t-17 -44t-30 -33t-45.5 -13q-18 0 -35.5 4.5t-32.5 10.5t-27.5 10.5t-22.5 4.5q-14 0 -20.5 -11t-8.5 -19h-77q2 26 8.5 50.5t18.5 43.5t28.5 30.5t38.5 11.5q20 0 37 -4.5t31 -10.5q15 -5 27.5 -10t23.5 -5q19 0 24 9.5t7 20.5h80z" />
    <glyph glyph-name="dieresis.cap" unicode="&#xe305;" 
d="M156 895h124v-130h-124v130zM-20 895h124v-130h-124v130z" />
    <glyph glyph-name="macron.cap" unicode="&#xe306;" 
d="M-25 874h310v-88h-310v88z" />
    <glyph glyph-name="breve.cap" unicode="&#xe307;" 
d="M130 837q25 0 47 17.5t26 46.5h72q0 -30 -8.5 -55.5t-26.5 -45t-45.5 -30.5t-64.5 -11q-38 0 -65 11t-45 30.5t-26.5 45t-8.5 55.5h72q4 -29 26 -46.5t47 -17.5z" />
    <glyph glyph-name="ring.cap" unicode="&#xe308;" 
d="M70 850q0 -25 17.5 -42.5t42.5 -17.5t42.5 17.5t17.5 42.5t-17.5 42.5t-42.5 17.5t-42.5 -17.5t-17.5 -42.5zM9 850q0 26 9.5 47.5t26 37t38.5 24t47 8.5t47 -8.5t38.5 -24t26 -37t9.5 -47.5t-9.5 -47.5t-26 -36.5t-38.5 -23t-47 -8t-47 8t-38.5 23t-26 36.5t-9.5 47.5z
" />
    <glyph glyph-name="hungarumlaut.cap" unicode="&#xe309;" 
d="M219 901h156l-100 -142h-106zM19 901h156l-100 -142h-106z" />
    <glyph glyph-name="dotaccent.cap" unicode="&#xe30a;" 
d="M192 895v-130h-124v130h124z" />
    <glyph glyph-name="caron.alt" unicode="&#xe30b;" 
d="M95 714h131l-59 -142h-98z" />
    <glyph glyph-name="commaaccent" unicode="&#xe30c;" 
d="M64 -50h134v-76q-3 -56 -32.5 -76.5t-84.5 -21.5v40q26 4 34 11t10 19h-61v104z" />
    <glyph glyph-name="commaaccent.alt" unicode="&#xe30d;" 
d="M196 610h-134v76q1 28 9.5 46.5t23 30t35.5 16t49 5.5v-40q-26 -4 -34 -11t-10 -19h61v-104z" />
    <glyph glyph-name="uniF8FF" unicode="&#xf8ff;" horiz-adv-x="512" 
d="M222 117v67h56v-67h-56zM225 234l-2 17q0 55 13 81t46 59q32 31 41 47.5t9 35.5q0 36 -22.5 60.5t-53.5 24.5t-53.5 -22t-28.5 -73l-50 8q7 71 44 104t91 33q53 0 88.5 -36t35.5 -95q0 -32 -12.5 -58.5t-50.5 -61.5q-37 -33 -43 -52t-6 -72h-46zM462 50v617h-412v-617
h412zM512 718v-718h-512v718h512z" />
    </font>
</defs>
</svg>
